<?xml version="1.0" standalone="no"?>
<!DOCTYPE svg PUBLIC "-//W3C//DTD SVG 20010904//EN"
 "http://www.w3.org/TR/2001/REC-SVG-20010904/DTD/svg10.dtd">
<svg version="1.0" xmlns="http://www.w3.org/2000/svg"
 width="816.000000pt" height="816.000000pt" viewBox="0 0 816.000000 816.000000"
 preserveAspectRatio="xMidYMid meet">
<metadata>
Created by potrace 1.14, written by Peter Selinger 2001-2017
</metadata>
<g transform="translate(0.000000,816.000000) scale(0.100000,-0.100000)"
fill="#000000" stroke="none">
<path d="M3805 8149 c-829 -55 -1663 -384 -2295 -904 -184 -152 -308 -272
-312 -303 -2 -20 -9 -28 -28 -31 -28 -3 -42 -19 -35 -38 2 -8 -3 -13 -13 -13
-10 0 -31 -13 -47 -30 l-29 -30 50 -2 c27 -1 60 -2 74 -3 21 -1 25 -6 25 -30
0 -30 -1 -30 -60 -33 -32 -2 -61 -4 -62 -6 -4 -4 -4 -82 0 -136 l2 -35 -92 -2
-93 -2 -1 32 c0 18 -3 27 -5 20 -3 -6 -20 -27 -37 -45 -99 -105 -306 -437
-427 -683 -448 -914 -539 -1951 -256 -2930 147 -512 398 -993 742 -1425 138
-173 440 -475 614 -614 238 -191 535 -378 796 -502 887 -424 1895 -515 2837
-258 431 118 799 286 1182 539 239 159 411 300 626 514 214 215 355 387 514
626 163 246 246 400 355 656 405 946 435 2016 85 2984 -151 416 -380 824 -661
1175 -139 174 -441 476 -614 614 -813 648 -1811 963 -2835 895z m-2607 -1504
c-1 -14 -6 -26 -10 -26 -36 -6 -43 -2 -46 24 -3 24 0 27 27 27 27 0 30 -3 29
-25z m3349 -919 c0 -8 -6 -12 -15 -9 -10 4 -11 8 -2 13 9 5 9 9 1 14 -19 12
-25 -24 -6 -38 13 -9 15 -15 6 -20 -6 -4 -9 -12 -6 -17 3 -5 -1 -6 -10 -3 -13
5 -14 2 -6 -19 7 -18 7 -27 -1 -29 -17 -6 -19 -38 -3 -44 8 -3 11 -12 9 -19
-3 -7 -2 -15 3 -18 5 -3 9 2 9 11 1 9 4 25 9 35 4 10 3 17 -5 17 -6 0 -8 -4
-5 -10 3 -5 2 -10 -3 -10 -20 0 -21 29 -1 35 16 5 18 10 8 21 -8 10 -8 14 0
14 11 0 15 -13 11 -39 -1 -13 1 -13 14 -2 9 7 14 17 11 20 -2 4 2 8 9 8 7 0
13 -6 13 -13 0 -7 -4 -11 -8 -8 -4 2 -10 0 -14 -6 -3 -5 1 -10 9 -10 18 0 21
-15 6 -25 -5 -3 -7 -12 -4 -20 4 -8 10 -12 15 -9 5 3 6 -3 2 -12 -4 -11 -8
-13 -11 -6 -2 7 -8 10 -13 6 -5 -3 -9 -2 -10 3 0 4 -2 16 -4 26 -2 10 3 17 13
17 15 0 15 2 2 10 -18 11 -29 -4 -25 -36 2 -25 -2 -27 -49 -24 -23 1 -28 -2
-23 -14 4 -9 1 -16 -6 -17 -8 0 -7 -2 2 -6 11 -5 11 -7 0 -14 -8 -5 -9 -9 -4
-9 10 0 12 -117 2 -126 -3 -3 -15 -5 -28 -5 -69 1 -84 -1 -91 -12 -4 -6 -2
-14 3 -18 7 -4 5 -12 -5 -21 -8 -9 -12 -19 -8 -23 4 -5 0 -4 -8 1 -8 5 -48 10
-88 10 l-74 2 4 -29 c3 -16 1 -29 -4 -29 -4 0 -8 -6 -8 -13 0 -8 -6 -14 -14
-14 -12 0 -12 4 0 23 10 15 12 24 4 29 -6 3 -9 1 -8 -6 2 -7 -2 -13 -9 -14 -6
0 -15 -3 -19 -7 -4 -5 -20 -8 -35 -8 -22 0 -27 -4 -26 -20 1 -11 5 -20 10 -20
4 0 6 -4 3 -9 -4 -5 2 -8 11 -6 10 2 22 4 26 4 4 1 3 9 -2 19 -7 14 -6 19 4
19 7 0 11 -6 8 -13 -3 -9 2 -11 16 -7 15 4 21 1 21 -10 0 -8 6 -17 12 -19 7
-3 -1 -9 -18 -15 -24 -8 -31 -8 -31 2 0 7 9 11 21 8 20 -3 21 -3 1 6 -12 6
-15 10 -6 10 8 1 11 4 8 7 -12 13 -35 -17 -32 -41 2 -24 0 -25 -56 -25 -60 0
-62 -2 -62 -42 0 -18 -16 -20 -149 -22 -26 -1 -27 -4 -33 -62 l-7 -60 -46 3
c-60 3 -110 -6 -91 -17 7 -5 16 -7 20 -4 12 7 1 -88 -12 -100 -9 -8 -10 -7 -6
7 4 10 3 16 -2 13 -5 -3 -14 0 -20 8 -12 14 2 34 24 34 5 0 11 6 13 14 3 11 2
11 -6 0 -7 -11 -10 -11 -15 2 -7 18 -27 22 -27 5 0 -5 5 -7 10 -4 16 10 12
-11 -5 -25 -14 -12 -14 -15 0 -30 23 -25 18 -36 -7 -14 -19 15 -20 16 -9 2 8
-11 9 -18 3 -18 -6 0 -14 5 -17 10 -5 8 -11 8 -19 1 -10 -8 -18 -5 -31 9 -20
22 -8 28 14 8 11 -11 12 -10 6 1 -6 11 -4 13 8 8 9 -3 19 -3 21 2 3 4 -12 7
-32 7 -20 -1 -40 3 -44 9 -4 5 -6 0 -5 -12 0 -12 4 -20 8 -17 4 2 13 -4 20
-13 12 -15 12 -16 -4 -10 -10 4 -22 7 -27 7 -5 0 -10 12 -12 28 -2 23 -8 27
-33 27 -29 1 -30 2 -32 50 -1 28 -2 52 -3 55 -2 3 -2 8 -1 13 0 4 -5 7 -12 7
-8 0 -7 4 3 11 12 9 11 10 -8 6 -12 -3 -20 -1 -17 3 3 5 -2 16 -12 25 -19 19
-27 65 -12 65 6 0 7 -4 4 -10 -3 -5 -2 -10 4 -10 6 0 8 -6 5 -14 -3 -7 2 -16
10 -19 17 -7 22 8 6 16 -6 3 -5 4 2 3 7 -1 16 -13 19 -27 6 -21 7 -19 6 9 -1
24 -6 32 -19 32 -10 0 -18 5 -18 11 0 6 9 8 23 4 17 -5 19 -4 7 4 -11 8 -11
11 -2 11 9 0 12 19 12 68 -1 37 1 77 4 89 3 13 -1 26 -8 30 -7 5 -16 15 -20
23 -3 8 -4 3 -1 -12 4 -20 2 -26 -7 -23 -8 3 -12 21 -12 44 2 43 9 61 25 61 6
0 8 -4 4 -9 -3 -5 -1 -12 3 -15 5 -3 9 19 8 49 -1 30 2 55 6 55 4 0 6 12 5 27
-2 23 3 28 28 33 22 4 31 12 35 30 5 24 31 37 29 15 -1 -5 -4 -9 -8 -8 -4 1
-8 -5 -8 -13 0 -12 4 -11 18 2 10 9 16 21 13 25 -3 5 40 9 95 9 l100 0 3 28
c3 30 -4 29 143 31 l95 1 0 30 0 30 103 1 c56 1 110 1 120 0 16 -2 20 5 20 42
0 14 9 17 64 17 64 0 65 0 61 -25 -3 -13 0 -26 6 -28 8 -3 8 -8 0 -18 -15 -21
-11 -42 9 -45 10 -1 23 9 32 24 9 15 15 20 14 12 -3 -39 2 -80 10 -80 6 0 8 8
6 18 -2 11 3 19 11 19 10 0 11 -4 3 -14 -8 -9 -8 -13 -1 -13 6 0 16 8 21 18 6
10 11 12 11 4 0 -7 4 -11 8 -8 8 4 8 25 3 69 -1 5 -6 5 -11 2 -6 -4 -8 -10 -6
-14 3 -4 -1 -8 -9 -8 -8 0 -13 2 -11 4 2 3 1 17 -4 32 -7 25 -5 27 19 25 14
-1 18 1 9 3 -24 6 -23 19 2 19 11 0 20 -4 20 -9 0 -4 5 -5 10 -2 8 5 7 12 -2
23 -7 10 -1 7 13 -6 14 -12 26 -29 26 -36z m-124 -3 c-4 -11 -2 -14 5 -9 7 4
12 1 12 -10 0 -13 -3 -14 -14 -5 -12 10 -17 8 -27 -11 -7 -13 -13 -26 -12 -29
1 -3 -4 -6 -11 -6 -8 0 -13 5 -11 11 6 28 18 46 32 46 10 0 14 7 10 19 -3 13
-1 18 9 14 7 -2 10 -12 7 -20z m172 -13 c-1 -11 -4 -22 -7 -25 -4 -5 -4 34 1
43 4 8 7 -1 6 -18z m112 5 c0 -8 -4 -12 -9 -9 -5 3 -6 10 -3 15 9 13 12 11 12
-6z m-253 -64 c-7 -8 -35 9 -29 19 4 6 11 5 20 -3 7 -6 11 -14 9 -16z m121 20
c3 -5 2 -12 -3 -15 -5 -3 -9 1 -9 9 0 17 3 19 12 6z m120 -20 c3 -5 2 -12 -3
-15 -5 -3 -9 1 -9 9 0 17 3 19 12 6z m-60 -41 c3 -6 -1 -7 -9 -4 -18 7 -21 14
-7 14 6 0 13 -4 16 -10z m56 -42 c-10 -11 -11 -9 -5 6 6 15 4 17 -6 11 -9 -6
-11 -4 -5 4 5 9 10 10 18 2 8 -8 7 -14 -2 -23z m-36 -27 c3 -5 2 -12 -3 -15
-5 -3 -9 1 -9 9 0 17 3 19 12 6z m-1301 -89 c3 -5 -1 -9 -9 -9 -8 0 -15 4 -15
9 0 4 4 8 9 8 6 0 12 -4 15 -8z m-40 -10 c3 -5 -1 -9 -9 -9 -8 0 -12 4 -9 9 3
4 7 8 9 8 2 0 6 -4 9 -8z m112 -28 c3 -20 2 -25 -5 -15 -5 8 -20 16 -32 18
-13 2 -25 6 -28 10 -3 3 4 3 17 0 15 -3 25 0 29 9 7 20 13 13 19 -22z m-78
-31 c-4 -23 -34 -25 -34 -2 0 14 3 16 15 6 12 -10 14 -9 8 6 -4 11 -3 16 4 12
5 -4 9 -14 7 -22z m49 14 c11 4 14 2 11 -8 -3 -8 -10 -14 -15 -14 -6 0 -15 -3
-19 -7 -4 -5 -3 -8 3 -8 6 0 10 -17 10 -38 0 -21 3 -44 8 -52 5 -7 4 -11 -1
-8 -5 4 -9 -12 -9 -33 0 -22 4 -38 10 -36 5 2 10 15 10 29 0 15 4 30 8 34 4 5
5 0 1 -10 -5 -12 -4 -17 2 -13 12 7 13 -102 1 -121 -5 -7 -20 -12 -34 -10 -19
2 -27 -2 -29 -14 -1 -10 2 -18 7 -18 5 0 9 -5 9 -11 0 -5 -4 -7 -10 -4 -5 3
-10 2 -10 -4 0 -5 6 -12 13 -14 8 -4 9 -8 1 -14 -6 -4 -14 -15 -18 -23 -3 -8
-4 -4 -1 10 2 14 0 32 -5 40 -8 13 -10 12 -10 -2 0 -10 -5 -18 -10 -18 -7 0
-7 6 -1 19 6 10 7 22 3 26 -4 5 0 4 8 0 12 -7 13 -6 4 6 -6 8 -10 22 -9 32 2
9 -2 17 -8 17 -7 0 -5 5 3 10 8 5 11 10 5 10 -5 0 -10 18 -9 39 0 38 0 39 -24
30 -14 -5 -27 -7 -30 -4 -3 3 -1 5 5 5 12 0 12 32 0 41 -5 3 -1 9 8 12 9 4 13
3 10 -2 -3 -5 0 -13 6 -17 8 -4 7 -9 -2 -15 -8 -5 -9 -9 -4 -9 6 0 17 5 25 10
10 6 11 10 3 10 -7 0 -13 5 -13 11 0 5 4 8 8 5 5 -3 9 14 11 37 2 43 14 59 37
50 9 -3 12 2 9 18 -5 24 6 51 12 32 3 -7 11 -9 20 -6z m1129 -22 c-5 -14 5
-20 27 -16 5 1 6 -3 2 -9 -4 -7 -12 -7 -26 0 -13 7 -19 7 -19 0 0 -5 -8 -10
-17 -9 -11 0 -13 3 -5 6 6 2 10 9 6 14 -3 5 -2 9 3 8 20 -3 27 2 13 11 -13 8
-12 10 4 10 12 0 16 -5 12 -15z m-326 -177 c0 -9 4 -8 10 2 12 18 12 2 0 -25
-7 -16 -9 -17 -9 -3 -1 9 -6 20 -12 24 -8 4 -9 -1 -5 -17 3 -13 3 -18 0 -11
-3 6 -10 10 -15 6 -11 -6 -11 -2 -3 20 7 19 34 22 34 4z m-920 -7 c0 -5 8 -12
18 -14 13 -4 12 -5 -4 -6 -12 0 -24 6 -28 14 -3 8 -1 15 4 15 6 0 10 -4 10 -9z
m804 -17 c3 -8 2 -12 -4 -9 -6 3 -10 10 -10 16 0 14 7 11 14 -7z m149 1 c-3
-9 -8 -14 -10 -11 -3 3 -2 9 2 15 9 16 15 13 8 -4z m-93 -65 c0 -5 -5 -10 -11
-10 -5 0 -7 5 -4 10 3 6 8 10 11 10 2 0 4 -4 4 -10z m-895 -90 c-3 -5 -1 -10
6 -10 7 0 10 -3 6 -6 -9 -9 -28 6 -22 17 4 5 8 9 11 9 3 0 2 -4 -1 -10z m102
-82 c0 -13 -1 -17 -4 -10 -3 6 -10 9 -16 5 -7 -4 -6 1 2 10 17 21 17 21 18 -5z
m34 -61 c-6 -8 -9 -16 -6 -19 3 -2 -2 -5 -10 -5 -13 0 -13 3 2 19 19 21 31 25
14 5z m-114 -12 c0 -8 -4 -12 -9 -9 -5 3 -6 10 -3 15 9 13 12 11 12 -6z m140
0 c0 -8 -4 -12 -9 -9 -5 3 -6 10 -3 15 9 13 12 11 12 -6z m154 -90 c17 3 20
-17 5 -32 -4 -4 -6 -1 -4 7 2 8 -2 14 -9 15 -7 0 -18 7 -25 15 -11 12 -11 12
2 3 8 -6 22 -9 31 -8z m-31 -25 c0 -5 -2 -10 -4 -10 -3 0 -8 5 -11 10 -3 6 -1
10 4 10 6 0 11 -4 11 -10z m97 -16 c-3 -3 -12 -4 -19 -1 -8 3 -5 6 6 6 11 1
17 -2 13 -5z m-10 -59 c0 -8 -4 -12 -9 -9 -5 3 -6 10 -3 15 9 13 12 11 12 -6z
m1643 -129 c0 -2 -7 -7 -16 -10 -8 -3 -12 -2 -9 4 6 10 25 14 25 6z m61 -108
c1 -29 1 -57 0 -61 -1 -5 12 -6 29 -4 16 3 30 2 31 -1 0 -4 2 -16 4 -27 2 -11
5 -37 7 -57 2 -34 5 -38 30 -38 24 0 28 -4 28 -29 0 -25 4 -30 28 -33 21 -2
28 -9 32 -33 4 -22 10 -30 25 -30 25 0 34 -12 28 -36 -4 -14 -12 -18 -29 -15
-13 3 -26 0 -30 -5 -3 -5 -27 -9 -52 -8 -26 1 -67 1 -91 0 -41 -1 -43 -2 -37
-26 6 -23 4 -25 -28 -25 -30 0 -35 3 -34 23 4 66 -2 99 -17 93 -8 -3 -15 0
-15 7 0 8 -4 6 -10 -3 -11 -17 -11 -15 -12 60 0 36 -5 62 -16 75 -16 19 -16
19 1 6 16 -13 18 -12 13 13 -3 19 0 29 11 33 14 6 14 8 -3 15 -14 6 -10 7 15
5 29 -3 32 -2 17 8 -15 12 -15 13 4 18 16 4 20 12 18 36 -1 21 -7 30 -15 27
-7 -3 -13 0 -13 7 0 9 -2 9 -8 0 -16 -25 -33 13 -23 52 0 3 26 5 56 5 l55 0 1
-52z m-134 17 c0 -8 -3 -13 -5 -10 -3 3 -12 -1 -21 -7 -10 -8 -9 -4 3 10 23
26 23 26 23 7z m323 -41 c0 -8 -19 -13 -24 -6 -3 5 1 9 9 9 8 0 15 -2 15 -3z
m8 -26 c-2 -7 6 -13 17 -12 16 1 20 -5 21 -32 0 -25 -3 -31 -12 -23 -8 7 -13
6 -16 -2 -2 -6 -9 1 -16 16 -7 14 -8 23 -2 20 5 -3 10 -2 10 4 0 5 -5 13 -10
16 -6 4 -8 11 -5 16 9 13 15 11 13 -3z m91 -99 c-11 -7 -11 -9 -1 -9 10 0 10
-3 0 -14 -9 -10 -15 -11 -20 -2 -5 7 -8 7 -8 -3 0 -19 -10 -9 -14 15 -3 15 2
20 26 21 21 0 26 -2 17 -8z m-1889 -134 c5 3 12 0 16 -6 4 -7 3 -9 -3 -6 -6 4
-16 0 -22 -7 -9 -11 -9 -14 1 -12 22 3 39 17 33 27 -4 5 0 9 7 9 9 0 9 3 -2
10 -11 7 0 10 38 10 40 0 51 -3 46 -12 -6 -10 -5 -10 8 -1 21 18 31 4 10 -16
-10 -9 -13 -13 -8 -8 18 13 22 8 22 -28 0 -19 -4 -35 -9 -35 -4 0 1 -10 12
-22 16 -16 18 -25 9 -35 -6 -7 -8 -16 -4 -20 3 -3 6 -1 6 7 0 10 3 10 15 0 8
-7 15 -9 15 -5 0 4 6 2 14 -5 8 -6 12 -19 9 -28 -4 -15 -3 -15 6 -2 9 12 11
11 11 -8 0 -13 -4 -21 -9 -18 -5 3 -7 -8 -6 -24 1 -17 -1 -32 -4 -35 -4 -2
-39 -5 -78 -7 -57 -2 -70 -5 -65 -17 3 -8 1 -12 -5 -8 -6 4 -16 0 -23 -8 -7
-8 -16 -13 -20 -10 -5 3 -12 1 -15 -5 -5 -8 -11 -8 -20 0 -10 8 -15 8 -21 -1
-5 -8 -3 -9 6 -4 9 6 11 4 5 -4 -5 -9 -10 -10 -18 -2 -14 14 -30 14 -21 0 5
-8 1 -8 -13 0 -14 7 -19 19 -18 36 2 14 -1 27 -6 31 -5 3 -6 11 -2 17 3 7 -3
4 -14 -6 -26 -23 -33 -13 -33 49 0 56 10 73 30 49 7 -8 18 -15 24 -15 6 0 4 5
-4 10 -15 10 -13 11 18 14 9 1 22 4 27 7 6 3 22 5 37 4 17 -1 35 6 45 17 14
15 14 19 3 16 -8 -2 -14 3 -12 10 1 8 -2 11 -8 7 -8 -5 -8 -11 -1 -19 6 -7 8
-16 4 -19 -8 -9 -53 65 -47 75 3 5 0 8 -6 8 -8 0 -9 -7 -5 -17 11 -30 11 -37
-2 -38 -15 0 -18 -20 -4 -20 5 0 12 -3 16 -6 3 -4 -8 -5 -24 -4 -20 2 -28 -1
-24 -9 3 -6 3 -8 -2 -4 -4 4 -13 3 -20 -2 -8 -7 -12 -5 -12 5 0 7 4 13 8 12 4
-1 7 3 7 8 0 6 -4 9 -8 8 -11 -3 -4 35 10 51 5 7 8 15 5 18 -3 2 2 5 10 5 10
0 12 -4 5 -12 -5 -6 -5 -17 0 -25 7 -11 10 -8 15 11 3 14 16 29 28 34 15 7 21
18 20 35 -1 15 0 18 3 7 3 -9 9 -15 14 -12z m1385 -35 c-3 -5 -12 -10 -18 -10
-7 0 -6 4 3 10 19 12 23 12 15 0z m60 -9 c3 -5 2 -12 -3 -15 -5 -3 -9 1 -9 9
0 17 3 19 12 6z m-1571 -36 c-4 -8 -8 -15 -10 -15 -2 0 -4 7 -4 15 0 8 4 15
10 15 5 0 7 -7 4 -15z m379 -11 c4 -1 22 -2 40 -3 l33 -1 -2 -60 c-2 -60 -7
-75 -25 -75 -5 0 -9 -4 -9 -10 0 -5 4 -10 9 -10 5 0 12 -3 16 -7 5 -5 -14 -4
-32 1 -10 3 -18 -3 -15 -12 2 -6 -4 -5 -12 3 -13 10 -16 10 -16 0 0 -19 -10
-6 -15 18 -2 12 0 24 6 27 17 11 9 41 -17 66 -14 13 -27 23 -30 22 -2 -2 -4 0
-5 5 0 4 -5 13 -11 20 -11 13 -10 14 21 16 11 0 23 4 27 8 4 4 12 4 18 0 6 -4
14 -7 19 -8z m1202 6 c-3 -5 -12 -10 -18 -10 -7 0 -6 4 3 10 19 12 23 12 15 0z
m-1465 -43 c0 -5 -4 -5 -10 -2 -5 3 -10 14 -10 23 0 15 2 15 10 2 5 -8 10 -19
10 -23z m1446 1 c0 -10 -1 -18 -1 -18 0 0 -8 9 -17 19 -16 18 -15 20 1 18 9 0
17 -9 17 -19z m-1289 -183 c0 -8 -4 -12 -9 -9 -5 3 -6 10 -3 15 9 13 12 11 12
-6z m43 10 c0 -2 -6 -8 -13 -14 -10 -8 -14 -7 -14 2 0 8 6 14 14 14 7 0 13 -1
13 -2z m-103 -18 c-2 -7 -15 -12 -28 -12 -15 0 -24 -6 -23 -16 1 -9 -4 -16
-10 -16 -7 0 -12 8 -12 18 0 10 3 16 7 13 4 -2 11 2 17 9 14 16 55 20 49 4z
m23 -11 c0 -2 -8 -10 -17 -17 -16 -13 -17 -12 -4 4 13 16 21 21 21 13z m-154
-51 c1 -8 -3 -18 -8 -22 -6 -3 -8 -1 -4 5 3 6 2 13 -4 17 -6 4 -8 11 -4 16 7
12 17 4 20 -16z m85 -12 c13 -16 12 -17 -3 -4 -10 7 -18 15 -18 17 0 8 8 3 21
-13z m-51 -17 c0 -8 -8 -20 -17 -27 -16 -13 -17 -12 -4 3 7 10 11 25 7 33 -3
9 -2 13 4 10 6 -3 10 -12 10 -19z m113 9 c-3 -9 -8 -14 -10 -11 -3 3 -2 9 2
15 9 16 15 13 8 -4z"/>
<path d="M4460 5703 c0 -16 2 -16 10 -3 9 13 12 12 25 -4 13 -17 17 -18 28 -6
9 10 9 12 -1 6 -7 -4 -15 -1 -18 8 -8 22 -44 21 -44 -1z"/>
<path d="M3780 5621 c0 -6 4 -13 10 -16 6 -3 7 1 4 9 -7 18 -14 21 -14 7z"/>
<path d="M4448 5601 c-25 -15 -32 -40 -15 -57 3 -4 5 3 2 15 -2 13 3 25 16 31
15 9 19 7 19 -5 0 -9 -4 -14 -8 -11 -4 2 -9 -7 -10 -21 -2 -23 0 -24 15 -12 9
8 18 13 20 12 11 -9 14 -1 3 12 -6 8 -9 18 -7 23 13 20 -9 28 -35 13z m36 -39
c3 -5 -1 -9 -9 -9 -8 0 -12 4 -9 9 3 4 7 8 9 8 2 0 6 -4 9 -8z"/>
<path d="M4424 5446 c1 -14 4 -28 7 -31 3 -3 5 6 5 19 -1 14 -4 28 -7 31 -3 3
-5 -6 -5 -19z"/>
<path d="M4300 5445 c0 -2 6 -8 13 -14 10 -8 14 -7 14 2 0 8 -6 14 -14 14 -7
0 -13 -1 -13 -2z"/>
<path d="M4395 5441 c-3 -5 -2 -12 3 -15 5 -3 9 1 9 9 0 17 -3 19 -12 6z"/>
<path d="M4290 5426 c0 -2 8 -10 18 -17 15 -13 16 -12 3 4 -13 16 -21 21 -21
13z"/>
<path d="M4395 5401 c-3 -5 -2 -12 3 -15 5 -3 9 1 9 9 0 17 -3 19 -12 6z"/>
<path d="M3431 5324 c0 -11 3 -14 6 -6 3 7 2 16 -1 19 -3 4 -6 -2 -5 -13z"/>
<path d="M3753 4945 c0 -8 4 -12 9 -9 5 3 6 10 3 15 -9 13 -12 11 -12 -6z"/>
<path d="M3398 5186 c-20 -15 -24 -36 -7 -36 5 0 7 5 3 12 -5 7 -3 8 6 3 10
-6 9 -11 -4 -21 -19 -13 -13 -38 7 -31 9 3 22 88 14 87 -1 0 -10 -7 -19 -14z"/>
<path d="M5223 4225 c0 -8 4 -12 9 -9 5 3 6 10 3 15 -9 13 -12 11 -12 -6z"/>
<path d="M5246 4199 c-8 -42 0 -50 9 -9 4 17 5 34 2 36 -2 3 -7 -10 -11 -27z"/>
<path d="M5516 4098 c3 -5 9 -6 14 -3 4 3 11 -1 13 -7 4 -8 6 -7 6 4 1 11 -6
16 -18 15 -11 0 -17 -5 -15 -9z"/>
<path d="M5526 4354 c-3 -9 -4 -19 -1 -22 3 -3 5 1 5 9 0 11 2 11 10 -1 5 -8
10 -10 10 -5 0 6 -4 16 -9 23 -6 11 -10 10 -15 -4z"/>
<path d="M5576 4282 c-3 -5 1 -9 9 -9 8 0 12 4 9 9 -3 4 -7 8 -9 8 -2 0 -6 -4
-9 -8z"/>
<path d="M3796 4158 c3 -5 10 -6 15 -3 13 9 11 12 -6 12 -8 0 -12 -4 -9 -9z"/>
<path d="M3711 4096 c-9 -11 -9 -16 1 -22 7 -4 10 -4 6 1 -4 4 -3 14 3 22 6 7
9 13 6 13 -2 0 -10 -6 -16 -14z"/>
<path d="M3617 4077 c-3 -9 3 -23 15 -34 12 -10 18 -13 15 -7 -8 14 16 37 27
27 4 -4 4 0 0 10 -6 16 -7 17 -19 1 -11 -16 -13 -16 -22 0 -9 16 -11 16 -16 3z"/>
<path d="M3582 3960 c0 -14 2 -19 5 -12 2 6 2 18 0 25 -3 6 -5 1 -5 -13z"/>
<path d="M3605 3960 c-3 -6 1 -7 9 -4 18 7 21 14 7 14 -6 0 -13 -4 -16 -10z"/>
<path d="M3935 4061 c-3 -5 -15 -8 -26 -6 -16 3 -18 1 -10 -9 6 -7 7 -17 3
-21 -4 -5 -2 -5 5 -1 6 3 14 2 18 -4 4 -6 11 -8 16 -5 5 4 9 -2 10 -12 0 -16
1 -16 9 2 7 16 9 11 9 -21 1 -22 -2 -44 -6 -48 -4 -3 -8 -13 -9 -20 -3 -18 20
-14 44 7 10 9 21 15 23 12 3 -2 5 10 5 28 1 18 3 43 5 57 3 20 0 25 -18 26
-13 1 -25 3 -28 4 -3 1 -8 3 -12 4 -5 1 -13 5 -20 9 -6 4 -14 3 -18 -2z m35
-16 c0 4 6 3 13 -2 6 -6 20 -9 29 -8 10 2 15 -2 12 -10 -3 -7 -7 -28 -8 -47
-2 -21 -8 -33 -17 -33 -8 0 -14 -6 -14 -12 0 -7 -3 -13 -7 -13 -9 0 -9 4 -2
24 3 8 4 29 2 48 -2 26 -7 33 -25 33 -12 0 -28 6 -35 14 -8 9 -8 11 -1 7 6 -3
15 -2 18 4 5 8 11 7 21 -1 8 -6 14 -8 14 -4z"/>
<path d="M3936 4042 c-3 -5 1 -9 9 -9 8 0 12 4 9 9 -3 4 -7 8 -9 8 -2 0 -6 -4
-9 -8z"/>
<path d="M3999 4023 c-5 -36 -5 -62 -1 -58 7 7 12 65 6 65 -2 0 -4 -3 -5 -7z"/>
<path d="M941 6678 l-43 -53 57 -9 c49 -7 59 -6 67 7 5 9 8 18 7 19 -1 2 3 13
9 25 9 16 9 24 0 29 -6 4 -8 3 -4 -4 3 -6 2 -13 -4 -17 -6 -4 -10 6 -10 24 0
47 -30 39 -79 -21z"/>
<path d="M1049 6665 c-1 -3 -2 -8 -3 -12 -1 -5 -4 -13 -8 -19 -4 -6 -1 -11 5
-11 7 0 13 11 13 24 0 21 -4 31 -7 18z"/>
</g>
</svg>
