<?xml version="1.0" standalone="no"?>
<!DOCTYPE svg PUBLIC "-//W3C//DTD SVG 20010904//EN"
 "http://www.w3.org/TR/2001/REC-SVG-20010904/DTD/svg10.dtd">
<svg version="1.0" xmlns="http://www.w3.org/2000/svg"
 width="816.000000pt" height="816.000000pt" viewBox="0 0 816.000000 816.000000"
 preserveAspectRatio="xMidYMid meet">
<metadata>
Created by potrace 1.14, written by Peter Selinger 2001-2017
</metadata>
<g transform="translate(0.000000,816.000000) scale(0.100000,-0.100000)"
fill="#000000" stroke="none">
<path d="M0 4080 l0 -4080 4080 1 4080 1 0 4079 0 4079 -4080 0 -4080 0 0
-4080z m778 3074 c-3 -59 -3 -59 -35 -62 -32 -3 -33 -2 -33 32 0 33 -3 36 -28
36 -25 0 -29 4 -30 30 -1 29 0 29 56 32 31 2 61 0 65 -3 4 -3 7 -33 5 -65z
m120 38 c3 -26 8 -32 28 -32 20 0 24 5 24 30 0 17 3 30 8 31 65 9 62 11 62
-58 0 -61 1 -63 25 -63 21 0 25 5 26 33 1 17 1 35 0 40 -1 4 10 5 23 3 24 -4
30 13 12 31 -4 4 -6 4 -4 -2 2 -5 -2 -11 -7 -13 -5 -2 -11 3 -13 11 -2 10 6
13 25 12 23 -1 28 -6 28 -26 0 -21 5 -24 33 -23 l32 1 0 -160 c0 -151 -1 -159
-19 -154 -22 5 -32 0 -47 -29 -11 -18 -9 -20 20 -23 17 -1 42 -4 56 -6 14 -2
31 -4 39 -4 8 -1 11 -8 8 -21 -3 -11 0 -20 6 -20 8 0 9 -3 1 -8 -6 -4 -10 -19
-9 -34 2 -27 -2 -31 -37 -31 -14 0 -18 -8 -18 -34 0 -32 2 -34 28 -31 23 3 27
0 24 -22 -3 -31 -11 -35 -59 -34 -54 2 -53 2 -53 23 0 26 -11 52 -19 47 -4 -3
-13 0 -21 6 -12 8 -12 9 3 4 22 -7 35 21 17 37 -10 9 -12 9 -7 -4 3 -9 0 -16
-8 -16 -8 0 -11 7 -7 15 3 10 1 13 -6 8 -7 -4 -12 -32 -12 -67 l0 -59 -125 0
c-133 0 -132 -1 -127 51 0 3 -20 5 -46 4 -42 -1 -47 -3 -46 -23 2 -36 -13 -25
-20 16 -13 83 -13 84 52 80 31 -1 63 1 71 6 9 6 12 5 8 -1 -6 -9 54 -9 79 1 7
3 15 0 18 -7 2 -7 5 3 5 21 l1 32 -120 0 -120 0 0 36 c0 28 -4 35 -17 32 -27
-4 -41 9 -36 34 4 22 10 23 94 26 l89 3 0 -29 0 -30 95 0 c72 -1 94 2 89 11
-5 9 -3 8 7 0 7 -7 24 -13 39 -13 14 0 20 4 14 8 -6 4 -10 15 -8 25 2 13 -5
17 -32 17 -32 0 -34 2 -34 34 0 30 -3 34 -21 31 -29 -6 -29 -6 -32 -58 -1 -25
-6 -43 -10 -40 -5 3 -6 11 -3 19 3 8 0 15 -7 15 -7 1 -19 2 -27 3 -9 0 -15 11
-15 26 0 25 0 25 -120 30 l-120 5 -3 63 -3 62 96 0 95 0 0 -28 c0 -23 4 -28
25 -28 20 0 25 5 25 24 0 16 -4 21 -12 16 -9 -5 -10 -4 -3 4 6 6 25 12 43 14
27 2 32 6 32 29 0 26 -1 26 -60 22 l-60 -5 0 65 c0 35 2 66 5 69 3 3 18 4 33
3 23 -1 27 -6 30 -33z m-41 -184 c-3 -8 -6 -5 -6 6 -1 11 2 17 5 13 3 -3 4
-12 1 -19z m70 -180 c0 -13 -1 -17 -4 -10 -3 6 -9 10 -13 7 -5 -3 -12 0 -16 6
-4 7 -3 9 4 5 6 -3 13 -2 17 4 9 14 11 13 12 -12z m136 -1 c-5 -11 -7 -11 -28
1 -19 11 -18 12 5 8 14 -1 24 -6 23 -9z m122 4 c3 -5 2 -12 -3 -15 -5 -3 -9 1
-9 9 0 17 3 19 12 6z m-270 -120 c3 -5 2 -12 -3 -15 -5 -3 -9 1 -9 9 0 17 3
19 12 6z m-99 -134 c2 -13 1 -13 -3 -2 -2 8 -9 13 -14 9 -5 -3 -7 -9 -5 -13 3
-4 -6 -7 -19 -7 -14 0 -22 2 -20 5 3 2 0 9 -5 16 -7 8 1 11 28 10 27 0 37 -5
38 -18z m4149 -585 c3 -8 0 -21 -7 -29 -9 -11 -9 -13 1 -11 8 2 15 -8 17 -22
3 -13 8 -28 12 -32 6 -5 300 -22 362 -20 8 0 22 -2 30 -4 12 -4 12 -6 0 -14
-8 -5 -21 -5 -30 0 -12 6 -16 3 -17 -13 -1 -12 1 -17 5 -11 5 8 14 8 32 1 30
-12 41 -14 148 -15 47 -1 82 -6 82 -12 0 -5 -6 -10 -14 -10 -9 0 -12 -7 -9
-20 5 -18 6 -18 31 -2 25 16 26 16 19 0 -3 -10 -3 -17 1 -17 19 3 23 -2 13
-15 -9 -10 -8 -15 4 -19 8 -4 12 -13 9 -22 -3 -8 -11 -12 -17 -8 -6 4 -7 1 -2
-6 4 -8 11 -9 16 -4 13 13 20 53 9 53 -11 0 -4 38 11 56 9 11 8 14 -5 14 -10
0 -16 -8 -16 -22 0 -18 -2 -20 -9 -8 -6 8 -7 19 -4 25 3 5 0 4 -8 -2 -18 -18
-30 -16 -23 2 4 10 20 15 44 15 34 0 39 -3 38 -22 -1 -13 -4 -27 -7 -33 -4 -5
-6 -19 -6 -30 0 -17 7 -20 48 -21 26 0 50 -4 55 -9 4 -5 0 -4 -8 0 -13 8 -13
7 -1 -8 14 -18 26 -23 16 -8 -3 5 -1 12 4 16 6 3 15 -3 20 -14 8 -15 6 -22
-10 -33 -19 -12 -17 -13 25 -10 25 2 46 0 46 -5 0 -5 16 -7 35 -5 34 4 70 -12
60 -28 -3 -4 3 -14 13 -21 15 -13 16 -12 3 4 -7 9 -10 17 -6 17 4 0 2 7 -5 15
-11 13 -8 15 18 15 26 0 30 -3 25 -17 -5 -15 -3 -14 10 2 13 17 18 18 29 6 7
-8 8 -11 2 -8 -7 4 -10 -8 -8 -37 3 -43 3 -43 -26 -41 -36 3 -36 3 -9 -21 14
-13 20 -14 17 -4 -4 16 23 21 35 5 5 -6 6 -3 3 8 -3 11 -2 16 4 12 6 -3 10
-13 10 -21 0 -8 4 -13 9 -9 6 3 8 14 6 25 -2 12 0 18 5 15 4 -3 7 -16 5 -30
-1 -14 1 -43 5 -65 4 -22 5 -40 1 -40 -3 0 -6 -11 -6 -25 0 -14 5 -25 10 -25
6 0 3 -5 -5 -10 -13 -9 -13 -10 0 -10 9 -1 6 -6 -9 -14 -19 -11 -21 -14 -7
-19 9 -4 16 -1 17 6 0 9 2 9 6 -1 2 -6 9 -10 14 -6 5 3 9 2 8 -3 -4 -20 2 -27
12 -13 9 13 10 13 6 -2 -3 -9 -1 -18 5 -20 6 -2 12 -12 14 -21 1 -9 -1 -15 -6
-12 -4 3 -11 -2 -14 -10 -4 -13 -10 -14 -26 -5 -21 11 -27 30 -9 30 5 0 8 -4
5 -9 -3 -5 0 -11 7 -14 8 -3 19 4 25 14 7 10 9 19 5 20 -5 0 -18 2 -31 3 -13
2 -25 -1 -28 -6 -10 -16 -34 -9 -27 9 5 12 3 14 -7 8 -9 -5 -11 -4 -6 3 4 7 2
12 -5 12 -7 0 -9 3 -6 6 4 4 13 2 20 -4 8 -7 18 -8 22 -4 5 4 5 -2 1 -13 -6
-16 -5 -18 6 -7 11 11 9 16 -12 32 -21 16 -22 21 -11 29 12 8 9 11 -12 16 -15
4 -27 14 -28 24 0 9 -6 0 -13 -18 -8 -23 -15 -31 -20 -23 -4 7 -2 20 5 28 6 8
10 17 7 19 -9 9 -37 -6 -43 -23 -2 -10 -16 -18 -30 -18 -15 -1 -22 2 -18 9 3
6 1 7 -5 3 -7 -4 -12 -14 -12 -22 0 -8 -5 -12 -10 -9 -6 4 -7 11 -4 17 5 7 1
9 -8 5 -9 -3 -24 3 -33 13 -15 17 -16 22 -4 36 13 16 12 16 -9 5 l-24 -13 22
-23 c21 -22 21 -24 3 -34 -10 -6 -13 -11 -6 -11 6 0 15 5 18 11 5 7 14 5 30
-5 16 -11 25 -12 33 -4 7 7 15 9 19 5 11 -12 -9 -25 -61 -39 -40 -11 -50 -11
-54 0 -3 9 -8 10 -16 3 -13 -11 -208 -17 -225 -7 -6 4 -11 2 -11 -5 0 -7 -9
-5 -22 7 -13 10 -20 15 -16 10 9 -10 -10 -38 -21 -32 -4 3 -7 -4 -7 -15 0 -10
4 -19 8 -19 4 0 8 7 8 16 0 9 5 12 12 8 6 -4 8 -3 4 4 -3 6 -2 13 4 17 5 3 10
-1 10 -9 0 -8 -5 -18 -11 -22 -8 -4 -7 -9 2 -15 10 -6 9 -8 -6 -8 -87 -1 -145
-6 -145 -13 0 -4 -3 -7 -7 -7 -5 1 -10 1 -13 -1 -25 -9 -50 -8 -44 2 4 7 3 8
-4 4 -9 -5 -9 -13 -1 -28 10 -19 9 -20 -13 -16 -20 4 -24 0 -26 -21 -2 -24 -2
-24 12 -5 8 10 18 16 22 11 4 -4 2 -7 -4 -7 -7 0 -12 -4 -12 -10 0 -5 6 -7 14
-4 8 3 17 1 21 -5 3 -6 -1 -14 -10 -17 -14 -6 -14 -9 -3 -16 10 -8 10 -9 -2
-5 -8 2 -15 9 -15 14 0 20 -15 27 -15 7 -1 -16 -3 -15 -15 6 -9 18 -10 29 -3
37 10 13 4 17 -17 13 -5 -1 -1 9 10 21 11 12 14 19 6 14 -11 -6 -13 -4 -8 9 6
14 3 17 -9 12 -8 -3 -20 -6 -25 -6 -6 0 -7 -6 -4 -12 4 -7 0 -5 -8 5 -9 11
-18 14 -21 8 -4 -5 -15 -8 -26 -6 -11 2 -20 -1 -20 -6 0 -6 -6 -7 -12 -3 -10
6 -10 4 0 -7 6 -7 12 -18 12 -24 0 -5 -5 -3 -10 5 -9 13 -10 13 -11 0 0 -10
-3 -8 -9 5 -7 17 -9 17 -9 3 -1 -17 -14 -23 -36 -18 -5 1 -17 3 -25 3 -8 0
-18 5 -22 11 -5 7 -8 6 -8 -4 0 -13 -30 -15 -210 -15 -133 0 -210 4 -211 10
-1 6 -2 15 -4 20 -1 6 -3 15 -3 21 -2 9 -12 10 -54 5 -3 -1 -5 -11 -4 -24 2
-15 -2 -24 -11 -24 -10 0 -13 8 -10 24 3 15 0 22 -7 20 -6 -2 -10 -13 -9 -24
2 -19 -4 -21 -100 -23 -166 -3 -162 -2 -162 -33 1 -23 -3 -27 -30 -28 -16 0
-46 -2 -65 -4 -19 -1 -47 -3 -62 -4 -24 -1 -28 -5 -28 -29 0 -23 -4 -27 -27
-28 -85 -3 -117 -6 -105 -11 6 -2 12 -13 12 -24 0 -10 -6 -20 -12 -21 -7 0
-17 -2 -23 -3 -5 -2 -27 -3 -47 -4 l-38 -1 0 -66 c0 -38 -4 -63 -9 -59 -5 3
-12 1 -16 -5 -4 -6 -12 -7 -18 -3 -7 4 -6 0 2 -10 14 -18 36 -13 25 5 -5 7 -2
8 5 3 7 -4 11 -16 8 -26 -4 -15 0 -19 24 -19 29 0 29 0 29 -61 0 -37 -4 -58
-10 -54 -5 3 -10 1 -10 -6 0 -7 -6 -5 -13 6 -9 12 -16 14 -21 7 -4 -6 -13 -9
-21 -5 -9 3 -15 -1 -15 -8 0 -11 -3 -11 -10 1 -7 10 -10 -15 -11 -80 -1 -52
-2 -110 -3 -127 -1 -18 1 -38 6 -45 6 -10 8 -10 8 1 0 10 3 11 13 2 8 -6 17
-8 20 -4 4 3 7 1 7 -6 0 -7 -7 -11 -15 -8 -8 4 -17 2 -21 -4 -4 -6 -11 -6 -20
2 -19 16 -18 4 2 -15 8 -9 23 -16 32 -15 14 0 13 2 -3 9 -19 8 -19 9 3 9 12 1
23 -5 23 -11 1 -7 2 -44 4 -83 4 -116 -1 -107 53 -104 62 3 71 7 67 29 -5 24
24 34 68 24 17 -4 56 -7 85 -6 55 1 53 3 56 -53 1 -13 7 -19 19 -19 13 1 16
-3 12 -16 -8 -24 17 -31 102 -29 37 0 73 1 78 0 6 -1 10 -22 10 -49 0 -36 -4
-46 -15 -44 -8 2 -11 0 -7 -4 14 -14 58 -15 75 -2 13 10 14 10 8 0 -6 -10 6
-12 53 -11 60 2 61 3 59 28 l-3 26 95 3 c93 3 116 11 105 39 -2 6 3 17 11 23
12 10 14 8 14 -14 0 -14 5 -26 10 -26 6 0 10 8 10 18 0 10 3 22 8 26 4 4 7 13
7 19 0 5 6 12 14 15 9 3 11 0 6 -8 -5 -8 -3 -11 5 -8 20 6 24 28 6 28 -9 0
-16 5 -16 11 0 5 4 8 9 4 5 -3 12 -1 15 4 4 5 -2 8 -11 6 -21 -3 -45 14 -37
26 3 5 13 9 22 8 14 0 13 -2 -3 -9 -11 -5 -14 -9 -7 -9 7 -1 23 6 36 14 13 9
28 15 32 14 30 -5 44 3 44 26 0 21 5 25 30 25 33 0 32 -2 33 142 0 20 4 35 8
32 4 -2 11 0 14 6 4 6 19 10 33 9 61 -5 62 -3 62 61 l0 60 -30 0 -30 0 0 90
c0 51 4 90 10 90 5 0 7 6 4 14 -3 8 -1 17 5 21 7 4 8 0 4 -11 -5 -13 -3 -15 7
-9 9 5 11 4 6 -3 -5 -8 0 -12 13 -12 11 0 22 4 26 10 3 5 11 8 18 6 7 -1 9 -1
5 1 -5 3 -8 11 -8 19 0 9 -5 12 -10 9 -6 -4 -8 -10 -6 -14 3 -4 -1 -8 -8 -8
-8 0 -11 9 -8 23 3 17 9 21 26 17 11 -3 37 -6 56 -6 27 -2 35 -6 34 -19 -1
-10 2 -18 6 -18 5 0 7 -11 5 -25 -1 -14 4 -33 11 -42 11 -16 12 -13 7 20 -5
30 -3 36 9 32 19 -7 42 20 34 40 -3 9 0 15 8 15 8 0 21 3 30 6 12 5 16 -6 18
-58 3 -61 4 -63 33 -68 31 -5 31 -4 34 -87 1 -30 4 -33 31 -33 27 0 30 -3 30
-30 0 -27 3 -30 30 -30 l30 0 0 -60 0 -60 30 0 c27 0 30 -3 30 -30 0 -29 15
-38 53 -31 5 1 8 -7 7 -16 -1 -10 -2 -37 -1 -60 1 -41 3 -43 30 -43 26 0 30
-4 33 -32 2 -28 7 -32 26 -30 12 2 22 2 23 0 11 -60 8 -123 -7 -145 -13 -20
-13 -25 -2 -21 10 4 14 -1 14 -18 0 -13 -4 -24 -9 -24 -5 0 -6 8 -3 18 6 16 5
16 -7 0 -8 -10 -18 -14 -23 -10 -4 4 -2 -1 5 -10 11 -15 11 -18 -2 -18 -9 0
-14 7 -12 18 2 9 4 17 5 17 1 0 3 8 5 19 2 10 -4 27 -13 37 -16 16 -48 19
-124 10 -5 -1 -8 -53 -8 -116 l0 -115 -58 0 -57 0 -2 65 c0 40 3 62 9 59 6 -4
6 2 -1 13 -6 11 -7 23 -4 27 3 3 0 6 -8 7 -13 0 -193 -3 -262 -5 -24 -1 -28
-5 -24 -23 4 -23 -22 -41 -42 -29 -17 11 -29 -19 -27 -66 l2 -47 -63 -7 c-61
-6 -63 -7 -63 -35 0 -32 9 -30 -140 -31 -19 0 -52 7 -73 15 -28 12 -44 14 -64
6 -15 -5 -33 -7 -41 -4 -8 3 -21 -3 -29 -12 -8 -10 -11 -12 -7 -4 5 11 3 13
-9 8 -10 -3 -17 -2 -17 3 0 6 -5 10 -11 10 -6 0 -9 -7 -5 -15 3 -8 1 -15 -5
-15 -6 0 -9 8 -7 18 3 13 12 16 36 14 23 -2 32 1 32 11 0 29 -86 37 -93 10 -4
-14 -5 -14 -6 3 -1 14 6 24 19 27 11 3 20 11 20 18 0 10 -3 10 -12 1 -8 -8
-17 -8 -30 -1 -18 10 -26 2 -32 -33 -1 -7 -5 -19 -9 -25 -5 -8 -3 -13 5 -13 8
0 9 -3 3 -8 -15 -11 -12 -36 5 -44 12 -5 12 -7 -2 -7 -10 -1 -18 -9 -19 -18 0
-10 -1 -36 -2 -58 -1 -25 -7 -40 -15 -40 -7 0 -17 -7 -22 -15 -8 -12 -10 -12
-10 -1 0 8 -3 12 -6 8 -3 -3 -3 -11 2 -18 5 -9 10 -9 18 2 21 27 36 20 36 -16
0 -23 -8 -44 -21 -58 -12 -12 -20 -17 -17 -12 3 6 0 16 -8 23 -12 11 -14 10
-14 -3 0 -18 -20 -21 -21 -2 0 8 -2 8 -6 -2 -4 -10 -7 -10 -13 -1 -4 7 -7 0
-7 -17 0 -77 -13 -196 -24 -209 -6 -8 -9 -17 -5 -21 3 -3 6 -2 6 4 0 5 6 10
14 10 10 0 11 -9 4 -40 -6 -30 -6 -42 4 -48 15 -10 28 -2 24 14 -1 7 -1 9 1 4
3 -4 10 -4 15 -1 7 4 8 2 4 -4 -4 -7 -2 -12 4 -12 8 0 8 -6 0 -20 -6 -11 -15
-18 -19 -15 -5 2 -9 -8 -9 -23 0 -53 -6 -71 -18 -62 -6 6 -15 6 -19 2 -5 -4
-5 -1 -1 6 4 7 12 10 17 7 10 -7 13 18 2 28 -3 4 -12 2 -19 -4 -9 -7 -12 -6
-9 8 1 10 -2 27 -7 38 -9 20 -9 20 6 1 12 -14 16 -16 16 -5 0 12 2 12 11 -1 9
-13 10 -12 5 3 -4 12 -2 16 6 11 6 -4 8 -3 5 3 -5 9 -23 9 -72 4 -5 -1 -3 -6
5 -12 11 -8 4 -9 -27 -6 -44 5 -51 -1 -37 -38 6 -13 9 -14 16 -3 8 10 9 10 5
-2 -2 -9 -14 -14 -28 -13 -13 1 -18 0 -10 -3 11 -5 11 -8 0 -16 -10 -7 -7 -8
11 -4 21 4 23 3 9 -7 -14 -10 -14 -14 -3 -25 8 -7 14 -9 14 -5 0 4 19 8 43 8
38 1 39 0 16 -8 -19 -7 -26 -17 -27 -38 -1 -27 2 -29 39 -27 21 1 39 6 39 11
0 5 7 7 15 3 9 -3 15 0 15 9 0 20 -21 30 -31 14 -4 -7 -11 -10 -15 -6 -4 4 0
15 9 24 13 14 18 14 32 3 13 -11 18 -11 24 -1 7 10 13 11 31 1 18 -10 24 -9
32 1 8 11 9 10 4 -3 -3 -10 -1 -20 4 -23 6 -4 10 0 10 8 0 8 7 17 15 21 8 3
15 1 15 -5 0 -6 5 -7 10 -4 6 3 10 -3 10 -15 0 -12 9 -25 23 -31 21 -9 21 -9
-4 -5 -23 5 -26 1 -37 -41 -7 -25 -15 -43 -19 -39 -3 3 0 24 7 46 7 22 10 43
7 47 -4 3 -7 -3 -7 -15 0 -12 -5 -22 -10 -22 -6 0 -9 -3 -9 -7 1 -5 1 -15 0
-23 -1 -13 -2 -13 -11 0 -6 10 -10 11 -10 3 0 -7 -9 -13 -20 -13 -11 0 -25 -8
-31 -18 -8 -13 -20 -17 -43 -14 -30 4 -30 4 -11 -12 19 -15 18 -15 -18 -16
-26 0 -36 4 -31 12 4 6 3 8 -4 4 -19 -11 -42 -66 -29 -67 7 -1 -1 -5 -18 -9
l-30 -8 30 -2 30 -2 -30 -7 c-20 -4 -31 -13 -33 -28 -2 -12 2 -21 10 -20 7 0
22 -1 33 -2 17 -1 18 -3 5 -11 -12 -8 -11 -10 6 -10 23 0 37 21 28 43 -3 8 2
20 11 27 8 7 15 20 15 28 0 12 -3 13 -12 4 -7 -7 -16 -12 -21 -12 -5 0 -2 7 7
15 26 26 36 17 35 -32 -1 -39 -2 -43 -9 -23 -7 21 -8 22 -9 5 -1 -11 -4 -31
-8 -44 -4 -16 -3 -22 5 -17 6 3 13 3 15 -2 3 -4 -12 -7 -34 -7 -29 0 -41 5
-45 18 -5 16 -8 16 -29 -7 -22 -24 -25 -25 -34 -8 -6 9 -11 11 -11 5 0 -21
-20 -15 -20 6 0 11 -5 23 -12 27 -6 4 -8 3 -4 -4 11 -19 9 -111 -3 -126 -10
-11 -8 -17 6 -25 17 -10 16 -10 -3 -11 -12 0 -25 7 -28 16 -3 8 -10 12 -16 9
-21 -13 -9 8 15 27 24 19 25 21 8 34 -10 7 -22 13 -28 13 -5 0 -2 -6 9 -14 10
-7 15 -19 11 -25 -9 -15 -44 20 -37 38 2 6 -1 12 -7 12 -6 0 -11 5 -11 11 0 6
9 8 20 4 11 -4 20 -2 20 4 0 6 -6 11 -14 11 -8 0 -17 6 -19 13 -3 6 -6 3 -7
-8 l-1 -20 -9 20 c-7 14 -8 9 -4 -20 5 -38 4 -39 -11 -20 -14 17 -17 18 -25 5
-14 -21 -12 -33 3 -24 7 5 6 0 -3 -11 -14 -17 -13 -18 3 -12 12 5 16 3 11 -5
-5 -8 -1 -9 12 -4 10 4 15 4 11 0 -4 -4 -1 -14 5 -23 10 -13 10 -14 -2 -3 -20
18 -29 15 -25 -8 2 -11 0 -20 -6 -20 -5 0 -9 -19 -9 -42 0 -24 4 -38 8 -31 9
14 7 -156 -3 -187 -6 -20 -5 -22 11 -16 15 6 16 5 7 -5 -9 -9 -9 -16 -2 -25
12 -15 4 -34 -14 -34 -7 0 -24 -6 -39 -14 -23 -12 -29 -12 -39 0 -10 12 -9 17
1 27 10 10 12 9 7 -5 -4 -10 -2 -18 3 -18 6 0 10 12 10 26 0 14 -4 23 -10 19
-5 -3 -10 -1 -10 4 0 14 11 13 33 -3 18 -14 24 -32 7 -21 -5 3 -10 1 -10 -4 0
-14 17 -14 25 -1 3 5 12 7 20 3 8 -3 15 0 15 6 0 6 -7 11 -15 11 -18 0 -65 43
-65 60 0 5 3 9 8 9 22 -4 27 5 24 46 -2 25 -8 45 -13 45 -4 0 -6 -7 -3 -15 5
-11 -1 -15 -22 -15 l-29 0 28 24 c28 25 28 25 7 36 -12 6 -28 9 -36 6 -8 -3
-14 -1 -14 4 0 6 4 10 9 10 4 0 7 12 5 27 l-4 28 12 -27 c12 -29 23 -35 33
-18 3 6 1 10 -4 10 -6 0 -11 5 -11 11 0 5 6 7 12 3 7 -5 21 -9 31 -9 15 -1 17
5 15 33 -4 44 -33 66 -52 39 -16 -21 -30 -23 -22 -2 3 9 0 15 -9 15 -8 0 -15
9 -15 20 0 17 7 20 40 20 27 0 40 -4 40 -14 0 -7 8 -20 17 -27 11 -10 14 -10
9 -1 -4 7 -2 12 6 12 8 0 6 5 -5 11 -9 6 -15 14 -12 20 4 5 -4 13 -17 18 -17
7 -19 10 -5 10 22 1 23 39 1 48 -12 5 -13 7 -2 14 11 7 10 10 -1 21 -8 7 -11
8 -8 2 8 -14 -26 -14 -35 0 -11 16 -10 36 2 36 5 0 9 -3 9 -7 -4 -28 1 -33 22
-21 13 9 19 20 16 36 -2 12 0 25 5 28 5 3 4 12 -2 20 -9 10 -7 20 10 44 20 28
39 43 24 19 -5 -8 1 -10 18 -7 21 4 24 1 20 -14 -3 -14 1 -18 19 -17 17 1 19
3 7 6 -10 2 -18 9 -18 14 0 5 8 10 18 10 16 1 16 2 0 6 -10 2 -18 10 -18 16 0
7 -4 6 -10 -3 -8 -13 -10 -12 -10 3 0 10 -4 15 -10 12 -5 -3 -10 -1 -10 5 0 7
7 10 15 6 11 -4 15 1 15 19 0 19 4 23 17 18 12 -5 14 -3 8 7 -6 10 -4 12 8 7
10 -3 17 -2 17 3 0 6 -7 10 -15 10 -21 0 -19 18 3 23 10 3 6 5 -11 6 -16 1
-26 5 -22 11 4 6 10 8 15 5 5 -3 11 -1 15 5 3 5 -1 10 -9 10 -8 0 -17 -4 -21
-10 -7 -11 -35 -2 -35 12 0 5 4 7 9 4 16 -10 41 5 41 25 0 10 -5 19 -10 19 -6
0 -9 -3 -9 -7 3 -19 -2 -33 -11 -33 -6 0 -8 11 -6 25 3 15 1 23 -5 20 -5 -4
-7 -11 -4 -16 4 -5 2 -9 -3 -9 -5 0 -12 8 -15 19 -6 24 -57 17 -57 -8 0 -10
-6 -25 -13 -35 -12 -16 -14 -16 -14 -2 0 9 4 16 9 16 4 0 8 9 8 19 0 14 -6 18
-22 15 -13 -2 -17 -2 -10 2 6 3 12 10 12 15 0 6 -4 7 -10 4 -6 -3 -10 4 -10
16 0 12 3 20 6 16 4 -3 13 0 20 8 19 18 18 31 -1 15 -12 -10 -15 -10 -15 3 0
9 -5 19 -10 22 -6 4 -9 1 -8 -6 2 -8 -7 -13 -22 -14 -14 0 -25 -6 -24 -12 3
-35 4 -38 14 -23 7 12 9 10 7 -7 0 -12 -6 -19 -12 -15 -5 4 -13 7 -17 7 -3 0
-10 4 -15 9 -5 5 -2 6 6 1 10 -6 12 -3 7 12 -4 13 1 26 14 38 11 10 20 15 20
10 0 -4 6 -2 13 4 8 6 16 8 19 5 3 -2 8 2 11 9 4 11 0 13 -14 10 -25 -7 -24 1
3 26 17 17 24 18 37 8 14 -11 14 -10 2 5 -13 17 -15 17 -41 -2 -16 -11 -33
-20 -39 -20 -6 0 -7 -8 -4 -17 6 -15 4 -16 -9 -6 -8 7 -18 10 -21 6 -4 -3 -7
-2 -7 4 0 17 26 34 42 28 9 -4 18 0 21 7 3 10 -8 13 -49 13 -55 0 -58 -4 -41
-45 8 -17 4 -47 -6 -55 -4 -3 -5 -2 -2 2 3 3 -1 13 -8 21 -9 13 -9 14 1 8 7
-4 12 -1 12 9 0 10 -5 13 -12 9 -7 -5 -8 -3 -3 6 6 10 4 12 -9 7 -12 -5 -15
-3 -11 6 4 6 -1 3 -9 -7 -16 -19 -16 -19 -16 2 0 12 3 21 8 21 22 -4 30 3 25
21 -5 21 11 28 22 10 9 -14 25 -12 25 3 0 8 6 14 14 14 9 0 12 -7 8 -16 -3 -9
-1 -13 4 -8 14 13 12 75 -3 70 -6 -3 -11 -10 -9 -16 1 -7 1 -9 -1 -4 -9 15
-23 6 -24 -15 -1 -22 -1 -22 -9 2 -5 15 -8 18 -9 9 -1 -20 -31 -34 -31 -15 0
7 -6 19 -14 25 -8 7 -13 22 -12 34 2 18 -2 23 -19 23 -21 0 -27 -19 -12 -42 3
-6 0 -11 -8 -11 -8 0 -14 11 -14 26 0 14 -3 55 -5 91 -3 36 -6 82 -7 103 -2
35 -3 36 -20 22 -14 -13 -19 -14 -25 -3 -5 7 -7 21 -5 31 1 10 -6 28 -16 40
-10 11 -13 17 -7 14 7 -4 12 3 12 18 0 29 -10 32 -32 9 -18 -18 -17 -21 -21
74 -2 34 -8 69 -15 76 -7 10 -8 16 0 21 5 3 10 22 10 41 0 26 -3 33 -12 28 -9
-5 -9 -2 1 9 11 14 11 20 0 34 -8 9 -9 14 -3 10 8 -5 12 19 12 81 1 58 -2 80
-8 67 -8 -18 -9 -18 -9 -2 -1 10 6 20 14 23 8 4 12 11 8 17 -3 5 -5 27 -5 47
1 29 -2 39 -17 43 -15 3 -18 1 -14 -12 3 -10 0 -9 -8 4 -7 11 -12 22 -11 25 4
9 27 6 34 -5 14 -19 8 15 -7 45 -11 21 -12 31 -3 36 6 4 9 3 5 -2 -3 -5 1 -17
8 -27 7 -10 16 -14 19 -9 3 6 -2 13 -12 17 -16 6 -16 7 2 20 17 13 17 14 -5
13 -13 -1 -28 -5 -34 -9 -6 -5 -11 27 -12 89 -3 146 -5 183 -10 150 -3 -20
-10 -28 -24 -28 -13 0 -18 -4 -13 -12 5 -7 3 -8 -5 -3 -8 5 -9 11 -3 17 15 15
2 48 -18 48 -24 0 -37 20 -35 53 1 20 -2 26 -14 25 -9 -2 -19 -7 -24 -13 -4
-5 -5 5 -2 24 5 27 3 32 -9 28 -9 -4 -13 -1 -10 6 8 22 -40 41 -111 43 -38 2
-70 4 -70 4 0 1 -29 2 -65 3 -47 1 -68 -2 -77 -13 -9 -12 -10 -9 -6 15 5 25 3
28 -8 18 -18 -18 -32 -16 -26 2 4 8 2 17 -3 20 -6 4 -10 13 -10 22 0 13 3 13
15 3 12 -10 15 -10 15 4 0 9 -5 16 -10 16 -6 0 -5 6 2 14 11 12 14 11 20 -3 5
-12 7 -10 8 9 2 24 3 23 10 -5 4 -16 8 -22 9 -12 0 10 6 15 11 12 6 -4 7 -12
3 -18 -5 -8 -2 -8 9 0 8 7 19 9 24 5 4 -4 2 1 -5 11 -8 9 -16 15 -19 12 -3 -3
-14 2 -24 12 -19 17 -25 58 -9 67 4 3 6 18 3 33 -4 23 -3 26 9 17 16 -13 51
-15 43 -3 -2 5 -11 6 -19 2 -8 -3 -15 0 -15 6 0 6 10 12 23 12 20 1 20 2 2 6
-34 8 -41 23 -11 23 20 0 27 4 23 14 -3 7 0 19 6 26 9 10 9 11 0 6 -9 -5 -11
-2 -6 10 6 15 7 15 18 1 24 -33 39 -2 40 87 2 83 1 86 -19 81 -12 -3 -15 -2
-8 1 17 8 15 24 -2 24 -8 0 -17 -8 -19 -17 -4 -14 -5 -12 -6 5 -1 17 4 22 23
22 27 0 42 15 26 25 -5 3 -10 2 -10 -4 0 -6 -7 -8 -15 -5 -8 4 -15 14 -14 23
0 10 2 11 6 4 6 -18 23 -16 23 1 0 8 4 16 10 18 5 2 12 22 14 46 2 23 0 40 -4
37 -4 -3 -6 4 -3 15 3 11 0 20 -6 20 -5 0 -8 6 -5 13 3 8 0 26 -5 40 -8 21 -8
27 3 27 8 0 16 -3 19 -7 2 -5 2 -2 1 5 -2 6 6 12 19 13 21 1 21 1 -3 9 -21 7
-22 8 -5 10 11 1 15 4 8 6 -7 3 -20 1 -30 -5 -14 -8 -15 -11 -3 -11 8 -1 5 -5
-8 -11 -13 -5 -27 -7 -31 -4 -4 2 -7 37 -7 77 l1 73 88 1 88 0 -3 -25 c-2 -20
2 -26 17 -27 11 -1 31 -4 44 -9 13 -4 21 -3 18 1 -3 5 62 8 144 6 l149 -3 0
30 0 31 95 0 c89 0 95 -1 95 -21 0 -11 -4 -18 -8 -15 -5 3 -9 -1 -9 -8 0 -10
8 -12 29 -5 20 5 26 4 22 -3 -5 -7 -2 -9 8 -6 11 5 14 0 10 -18 -2 -13 -9 -21
-15 -17 -6 3 -7 1 -3 -5 4 -7 23 -12 41 -12 33 0 34 1 25 25 -7 18 -6 25 3 26
6 1 23 3 37 4 14 2 60 5 103 6 67 3 76 5 61 16 -11 8 -13 13 -5 13 9 0 8 4 -3
15 -8 9 -12 23 -9 31 4 12 8 13 14 3 4 -7 6 -16 4 -19 -2 -4 6 -6 17 -5 29 2
38 33 22 74 -8 19 -12 36 -9 39 3 3 5 0 5 -6 0 -7 5 -12 11 -12 5 0 7 4 4 10
-4 6 25 10 79 9 47 0 90 2 95 6 6 3 11 17 11 31 0 24 1 24 93 25 149 2 142 1
145 31 l3 27 122 3 c67 2 148 4 179 4 42 1 58 -3 63 -14z m34 -42 c5 0 7 12 5
28 -2 16 -1 19 2 7 9 -30 23 -44 43 -40 12 2 17 -3 17 -20 0 -23 -6 -24 -39
-10 -13 5 -15 10 -7 15 9 5 9 9 1 14 -6 4 -14 0 -18 -9 -3 -10 0 -21 8 -26 11
-7 11 -9 -3 -9 -10 0 -18 3 -19 8 0 4 -1 25 -3 47 -2 22 -1 30 1 18 2 -13 8
-23 12 -23z m-848 -122 c11 3 12 1 2 -9 -14 -15 -18 -33 -5 -25 5 3 9 -1 9 -9
0 -11 -3 -12 -14 -3 -8 6 -12 17 -9 24 3 7 1 16 -4 19 -6 4 -9 18 -9 33 1 27
1 27 8 -3 5 -19 12 -29 22 -27z m-297 -79 c-2 -4 2 -9 8 -12 7 -3 3 -4 -9 -4
-25 1 -32 24 -8 24 8 0 12 -4 9 -8z m1901 -8 c3 -5 2 -12 -3 -15 -5 -3 -9 1
-9 9 0 17 3 19 12 6z m349 -159 c3 -5 -1 -9 -9 -9 -8 0 -12 4 -9 9 3 4 7 8 9
8 2 0 6 -4 9 -8z m-2990 -18 c4 -9 4 -19 1 -22 -3 -3 -5 0 -5 8 0 10 -3 10
-15 0 -12 -10 -15 -10 -15 2 0 30 24 38 34 12z m2885 -200 c-11 -14 -10 -19
11 -36 15 -12 24 -28 22 -40 -2 -12 1 -18 7 -14 5 4 15 -2 21 -13 6 -11 16
-19 23 -17 6 1 9 1 4 -1 -4 -3 -5 -9 -2 -14 4 -5 -1 -6 -9 -3 -8 3 -18 15 -22
26 -6 19 -6 19 -20 1 -11 -15 -13 -15 -8 -1 4 11 0 16 -13 15 -12 -1 -17 4
-15 15 2 11 -3 15 -15 13 -10 -2 -18 -4 -18 -5 0 -1 -13 -4 -30 -6 -28 -5 -29
-4 -10 10 15 10 22 11 27 3 5 -7 8 -4 8 10 0 12 -3 23 -7 26 -5 2 -3 2 4 1 6
-2 19 8 27 22 9 13 19 24 22 24 4 0 0 -7 -7 -16z m57 -22 c-15 -3 -16 -6 -5
-14 12 -8 11 -9 -1 -5 -8 2 -16 11 -18 20 -2 12 2 14 20 9 20 -5 21 -7 4 -10z
m-579 -147 c0 -8 -4 -12 -9 -9 -5 3 -6 10 -3 15 9 13 12 11 12 -6z m-291 -7
c5 -7 3 -8 -6 -3 -10 6 -12 4 -6 -11 5 -14 4 -16 -5 -7 -6 6 -8 16 -5 22 9 14
13 14 22 -1z m181 -10 c12 29 23 9 14 -26 -3 -8 -41 21 -41 31 0 8 4 7 11 -3
8 -11 12 -12 16 -2z m-132 -8 c-3 -5 -12 -10 -18 -10 -7 0 -6 4 3 10 19 12 23
12 15 0z m-2115 -20 c0 -5 -4 -10 -10 -10 -5 0 -10 5 -10 10 0 6 5 10 10 10 6
0 10 -4 10 -10z m-83 -37 c-3 -10 -5 -4 -5 12 0 17 2 24 5 18 2 -7 2 -21 0
-30z m2338 -22 c3 -5 2 -12 -3 -15 -5 -3 -9 1 -9 9 0 17 3 19 12 6z m-57 -40
c5 -3 -2 -14 -17 -25 -26 -20 -26 -20 -8 0 9 12 14 24 11 27 -4 4 -12 -1 -19
-10 -9 -13 -14 -13 -20 -3 -5 8 -4 11 3 6 6 -3 14 3 17 15 5 15 9 18 15 9 4
-7 12 -15 18 -19z m-1 -88 c0 -9 -4 -10 -14 -2 -7 6 -13 12 -13 14 0 1 6 2 13
2 8 0 14 -6 14 -14z m-1457 -38 c0 -5 -5 -3 -10 5 -5 8 -10 20 -10 25 0 6 5 3
10 -5 5 -8 10 -19 10 -25z m1205 7 c-3 -3 -11 0 -18 7 -9 10 -8 11 6 5 10 -3
15 -9 12 -12z m212 -4 c-3 -8 -6 -5 -6 6 -1 11 2 17 5 13 3 -3 4 -12 1 -19z
m40 -8 c-1 -11 -5 -20 -10 -20 -4 0 -5 -6 -1 -12 4 -7 4 -10 -1 -6 -4 4 -15 2
-24 -4 -11 -9 -10 -5 2 9 11 12 16 27 11 34 -4 8 -3 10 4 5 7 -4 12 -2 12 3 0
6 2 11 4 11 3 0 4 -9 3 -20z m-2337 -10 c0 -5 -2 -10 -4 -10 -3 0 -8 5 -11 10
-3 6 -1 10 4 10 6 0 11 -4 11 -10z m2077 -35 c0 -8 -4 -12 -9 -9 -5 3 -6 10
-3 15 9 13 12 11 12 -6z m-2099 -66 c-3 -8 -7 -3 -11 10 -4 17 -3 21 5 13 5
-5 8 -16 6 -23z m-40 -1 c-2 -7 3 -13 10 -14 25 -3 27 -5 14 -13 -11 -6 -10
-11 3 -25 14 -13 14 -16 2 -16 -8 0 -18 12 -22 27 -5 21 -8 24 -16 12 -7 -10
-8 -7 -5 11 6 32 5 30 11 30 3 0 4 -5 3 -12z m383 -47 c7 11 9 10 9 -3 0 -10
-6 -18 -14 -18 -18 0 -28 14 -18 24 3 4 8 2 11 -5 2 -8 6 -7 12 2z m-4 -68
c-3 -10 -5 -4 -5 12 0 17 2 24 5 18 2 -7 2 -21 0 -30z m20 0 c-3 -10 -5 -4 -5
12 0 17 2 24 5 18 2 -7 2 -21 0 -30z m20 -5 c-3 -7 -5 -2 -5 12 0 14 2 19 5
13 2 -7 2 -19 0 -25z m445 -47 c-8 -4 -13 -11 -12 -15 1 -4 -1 -12 -4 -19 -3
-9 -1 26 3 41 1 1 7 2 14 2 9 0 9 -2 -1 -9z m78 0 c0 -5 -7 -12 -16 -15 -14
-5 -15 -4 -4 9 14 17 20 19 20 6z m-62 -52 c-2 -6 -8 -10 -13 -9 -5 1 -13 -7
-17 -17 -7 -16 -8 -16 -5 2 2 11 9 19 15 18 7 -2 12 2 12 7 0 6 3 10 6 10 3 0
4 -5 2 -11z m35 -9 c-3 -12 -8 -19 -11 -16 -5 6 5 36 12 36 2 0 2 -9 -1 -20z
m-303 -277 c0 -8 -5 -11 -10 -8 -6 4 -8 11 -5 16 4 5 1 9 -4 9 -6 0 -11 5 -11
11 0 8 5 8 15 -1 8 -7 15 -19 15 -27z m630 -92 c0 -17 -4 -32 -8 -35 -4 -2 -8
11 -8 30 0 19 4 34 8 34 4 0 8 -13 8 -29z m532 14 c3 0 9 -3 13 -7 4 -3 -1 -5
-12 -4 -10 2 -21 -2 -25 -8 -4 -6 -6 -1 -5 11 0 12 6 19 12 15 5 -4 13 -7 17
-7z m67 3 c-3 -27 2 -37 16 -32 8 4 15 1 15 -5 0 -6 -7 -11 -16 -11 -11 0 -14
-6 -9 -21 5 -15 4 -19 -4 -14 -7 4 -11 14 -10 23 3 38 0 45 -16 32 -21 -17
-19 -1 3 21 21 22 23 22 21 7z m-1230 -33 c5 2 7 -6 6 -18 -4 -35 -5 -37 -13
-37 -5 0 -9 21 -9 48 -1 26 1 37 4 24 2 -12 8 -20 12 -17z m1174 -7 c-6 -7 -9
-21 -8 -30 2 -10 0 -20 -5 -23 -4 -2 -7 5 -6 18 1 13 -4 21 -12 19 -8 -1 -11
2 -7 8 3 6 10 8 15 5 5 -3 11 -1 15 5 3 5 9 10 12 10 3 0 1 -6 -4 -12z m27
-28 c-12 -22 -21 -26 -17 -7 2 10 17 26 25 27 1 0 -2 -9 -8 -20z m-306 -89 c3
-5 -2 -15 -12 -22 -15 -12 -16 -12 -5 2 7 9 10 19 6 22 -3 4 -4 7 0 7 3 0 8
-4 11 -9z m87 -5 c-8 -10 -9 -16 -1 -21 14 -9 13 -24 -2 -21 -33 5 -38 17 -16
36 27 23 35 25 19 6z m-121 -11 c-5 -7 -9 -14 -7 -16 1 -2 0 -3 -2 -1 -11 7
-7 29 5 29 9 0 11 -4 4 -12z m-840 -17 c0 -4 -6 -8 -12 -9 -10 0 -10 -2 0 -6
6 -2 12 -9 12 -14 0 -5 -6 -8 -12 -6 -8 1 -13 -10 -13 -30 0 -18 -3 -33 -7
-33 -11 0 -10 58 1 65 6 3 8 14 6 24 -2 10 3 18 11 18 8 0 14 -4 14 -9z m2200
-98 c-5 -10 -10 -28 -10 -38 0 -14 -6 -19 -17 -17 -10 2 -21 4 -25 4 -17 2 -7
51 12 61 11 6 18 16 14 21 -4 7 1 7 15 0 17 -10 19 -16 11 -31z m40 -11 c-7
-12 -6 -19 3 -22 7 -4 6 -6 -4 -6 -11 -1 -16 7 -16 22 0 13 5 24 13 24 9 0 10
-5 4 -18z m-2266 -29 c-1 -40 -14 -52 -14 -13 0 23 6 43 14 43 1 0 1 -14 0
-30z m20 -6 c3 -8 2 -12 -4 -9 -6 3 -10 10 -10 16 0 14 7 11 14 -7z m2218 -43
c-4 -10 1 -12 16 -6 12 3 22 3 22 -2 0 -5 -11 -10 -25 -11 -23 -2 -25 2 -24
36 0 29 2 32 8 17 5 -11 6 -26 3 -34z m38 22 c0 -10 -4 -14 -8 -8 -4 6 -11 13
-16 18 -5 4 -2 7 7 7 10 0 17 -8 17 -17z m-1293 -95 c-3 -7 -5 -2 -5 12 0 14
2 19 5 13 2 -7 2 -19 0 -25z m70 26 c-3 -3 -12 -4 -19 -1 -8 3 -5 6 6 6 11 1
17 -2 13 -5z m-37 -52 c0 -15 -2 -15 -10 -2 -7 12 -10 8 -11 -15 0 -16 -3 -24
-6 -17 -7 19 6 64 17 57 6 -3 10 -14 10 -23z m-2283 -7 c-4 -8 -1 -17 5 -21 6
-4 8 -3 5 2 -3 6 -2 16 3 23 5 9 7 3 7 -17 -1 -21 -5 -28 -13 -21 -6 5 -13 6
-16 4 -3 -3 -8 3 -11 15 -3 11 -1 18 4 14 5 -3 9 0 9 5 0 6 3 11 6 11 3 0 4
-7 1 -15z m2384 -18 c-10 -9 -11 -8 -5 6 3 10 9 15 12 12 3 -3 0 -11 -7 -18z
m464 -236 c3 -5 2 -12 -3 -15 -5 -3 -9 1 -9 9 0 17 3 19 12 6z m-690 -44 c5 5
3 0 -4 -9 -16 -21 -18 -22 -18 -5 0 6 -3 23 -6 37 -6 23 -6 22 6 -3 7 -15 17
-24 22 -20z m528 -32 c4 3 4 2 1 -2 -3 -5 -10 -8 -15 -8 -5 0 -9 -4 -9 -10 0
-5 6 -10 12 -10 7 0 13 -7 14 -15 0 -9 -1 -10 -3 -2 -3 7 -9 10 -14 7 -5 -4
-5 -14 1 -26 8 -14 7 -19 -2 -19 -10 0 -10 -2 0 -9 11 -6 10 -10 -4 -15 -9 -3
-19 -4 -22 -1 -3 3 1 5 9 5 11 0 11 2 -1 10 -10 6 -11 10 -2 10 6 0 12 7 12
15 0 8 -6 15 -14 15 -7 0 -20 8 -27 18 -11 14 -11 15 1 5 8 -7 21 -13 29 -13
11 0 10 5 -5 21 -10 11 -14 20 -9 19 22 -5 27 1 14 18 -13 16 -13 16 7 -1 11
-9 24 -15 27 -12z m-2621 8 c-6 -2 -10 -9 -7 -14 4 -5 -1 -6 -10 -2 -13 5 -14
7 -3 14 7 5 18 8 23 8 6 0 4 -3 -3 -6z m2538 -68 c4 3 14 -3 21 -13 13 -15 12
-16 -3 -3 -23 18 -23 6 1 -27 10 -15 20 -31 22 -37 5 -13 51 -15 65 -3 7 5 26
6 43 3 24 -4 31 -2 31 10 0 9 -4 14 -9 11 -5 -3 -11 1 -15 9 -6 17 9 29 25 19
6 -3 21 -1 34 6 33 18 98 5 91 -18 -3 -9 -1 -24 5 -32 9 -12 10 -11 6 8 -4 16
-1 22 11 22 13 0 14 2 4 9 -11 6 -9 9 5 13 21 6 112 3 118 -4 2 -2 6 -26 8
-53 3 -36 9 -51 21 -53 9 -2 16 -9 16 -15 0 -7 4 -6 10 3 7 11 10 5 10 -22 0
-39 -8 -46 -27 -27 -9 9 -10 6 -6 -10 4 -17 2 -20 -11 -15 -9 3 -14 10 -11 14
3 5 1 11 -4 15 -6 3 -8 -4 -6 -15 3 -14 0 -20 -8 -17 -7 2 -13 9 -13 15 -3 22
-4 23 -16 15 -23 -14 -38 -12 -38 5 0 22 -24 -23 -34 -64 -5 -20 -4 -26 3 -19
6 6 12 20 14 32 5 36 15 37 13 1 0 -18 -7 -38 -15 -44 -7 -5 -15 -31 -18 -56
l-5 -46 -77 0 c-42 0 -83 -3 -91 -6 -16 -6 -39 -4 -55 5 -5 3 -46 5 -90 4 -46
0 -83 3 -87 9 -4 6 -8 -2 -8 -19 0 -22 -3 -26 -9 -16 -5 8 -7 20 -4 27 3 8 -5
18 -20 23 -14 6 -27 21 -31 36 -4 14 -11 23 -17 20 -6 -5 -6 -12 2 -21 9 -11
9 -18 1 -26 -9 -9 -12 -7 -12 10 0 12 -5 22 -12 22 -6 0 -3 9 7 20 17 19 17
22 2 37 -13 13 -19 14 -31 3 -18 -14 -22 -50 -6 -50 6 0 10 -5 10 -11 0 -5 -4
-7 -10 -4 -5 3 -10 -3 -10 -13 0 -16 -5 -19 -22 -14 -19 5 -20 7 -5 10 9 2 17
7 17 12 0 5 -7 7 -15 4 -8 -4 -15 -1 -15 5 0 6 7 11 16 11 8 0 12 5 9 10 -4 6
1 23 10 37 16 23 16 25 1 20 -10 -4 -16 -1 -16 9 0 8 4 13 9 9 6 -3 13 1 18 9
4 7 17 15 28 17 14 3 23 19 33 62 11 44 18 57 33 57 11 0 19 -7 20 -17 1 -16
2 -16 6 -2 5 22 43 32 50 13 3 -8 9 -14 15 -14 5 0 6 5 3 10 -3 6 0 10 7 10 8
0 9 3 3 8 -5 4 -11 25 -11 47 -1 22 1 34 3 27 3 -6 8 -10 13 -7z m143 -32 c-3
-7 -6 -13 -8 -13 -2 0 -5 6 -8 13 -3 8 1 14 8 14 7 0 11 -6 8 -14z m-1233 -38
c0 -8 -4 -15 -10 -15 -5 0 -10 7 -10 15 0 8 5 15 10 15 6 0 10 -7 10 -15z
m1154 -3 c3 -5 -1 -9 -9 -9 -8 0 -12 4 -9 9 3 4 7 8 9 8 2 0 6 -4 9 -8z m36
-2 c0 -5 -5 -10 -11 -10 -5 0 -7 5 -4 10 3 6 8 10 11 10 2 0 4 -4 4 -10z
m-1100 -76 c0 -8 -19 -13 -24 -6 -3 5 1 9 9 9 8 0 15 -2 15 -3z m790 -10 c0
-16 -16 -19 -25 -4 -4 6 -11 7 -17 4 -6 -4 -8 -3 -5 2 9 16 47 14 47 -2z m44
4 c-7 -11 -34 -10 -34 1 0 6 9 9 19 8 11 0 17 -5 15 -9z m-2169 -19 c-12 -18
7 -37 33 -33 27 4 27 4 27 -50 0 -30 -4 -58 -8 -62 -4 -4 -1 -14 6 -22 7 -10
8 -13 1 -9 -7 4 -18 -1 -25 -10 -12 -14 -11 -15 11 -8 14 4 22 4 18 0 -4 -4
-18 -9 -31 -10 -20 -3 -23 1 -19 22 3 18 7 21 13 11 5 -7 9 -11 10 -8 0 3 2
13 4 22 2 10 -1 20 -6 24 -5 3 -9 0 -9 -7 0 -7 -3 -9 -7 -6 -10 11 -11 77 -1
77 11 0 -24 49 -35 50 -4 0 -3 -9 3 -20 15 -28 5 -25 -14 5 -12 18 -13 24 -4
23 7 -2 12 2 11 8 -1 6 4 11 12 11 8 0 12 -4 10 -8z m2082 -56 c-3 -10 -5 -4
-5 12 0 17 2 24 5 18 2 -7 2 -21 0 -30z m678 28 c-3 -5 -1 -12 4 -15 5 -4 8
-18 5 -32 -3 -19 -1 -24 8 -18 10 6 9 3 -1 -9 -11 -14 -11 -18 3 -23 9 -4 20
-4 23 0 4 3 -2 6 -12 6 -18 0 -18 1 1 14 13 10 23 11 31 4 9 -7 13 -7 13 2 0
21 13 2 17 -23 2 -18 1 -19 -7 -7 -8 12 -12 12 -18 2 -6 -8 -29 -12 -70 -11
-52 2 -60 4 -50 16 8 10 14 11 22 3 16 -16 25 -12 23 10 -1 13 -6 19 -15 15
-19 -7 -12 46 8 62 18 15 23 16 15 4z m95 -31 c0 -16 -7 -20 -36 -20 -39 0
-44 22 -6 25 12 1 25 5 29 8 10 11 13 8 13 -13z m-1095 -30 c-3 -5 0 -10 7
-11 10 0 10 -2 0 -6 -6 -2 -9 -10 -6 -15 4 -6 2 -8 -4 -5 -5 4 -9 15 -7 25 5
23 4 22 11 22 3 0 2 -4 -1 -10z m334 -16 c-15 -18 -22 -13 -13 10 3 9 10 13
16 10 5 -3 4 -12 -3 -20z m81 5 c0 -5 -7 -9 -15 -9 -15 0 -20 12 -9 23 8 8 24
-1 24 -14z m-672 -44 c0 -16 -2 -15 -8 5 -11 34 -11 60 0 35 5 -11 8 -29 8
-40z m379 13 c-3 -8 -6 -5 -6 6 -1 11 2 17 5 13 3 -3 4 -12 1 -19z m-397 -7
c0 -6 -4 -12 -8 -15 -5 -3 -9 1 -9 9 0 8 4 15 9 15 4 0 8 -4 8 -9z m586 -41
c15 0 24 -6 24 -15 0 -8 -5 -15 -11 -15 -5 0 -7 5 -4 10 4 6 -5 10 -19 10 -22
0 -26 4 -25 28 2 23 2 24 6 5 3 -16 11 -23 29 -23z m1 25 c0 -8 -4 -15 -9 -15
-4 0 -8 7 -8 15 0 8 4 15 8 15 5 0 9 -7 9 -15z m-529 -17 c14 -14 16 -42 3
-33 -5 3 -12 -7 -14 -22 -3 -16 -4 -9 -3 15 1 23 -1 42 -4 42 -11 0 -35 -20
-36 -30 -1 -5 -2 -18 -3 -27 -2 -16 -3 -15 -10 2 -5 11 -4 25 1 32 5 6 5 13 1
15 -4 3 -3 4 3 2 6 -1 17 2 25 7 19 12 23 11 37 -3z m254 -10 c-7 -7 -12 -8
-12 -2 0 6 3 14 7 17 3 4 9 5 12 2 2 -3 -1 -11 -7 -17z m345 -16 c-3 -29 -1
-39 9 -39 8 0 12 9 10 21 -2 12 -1 15 1 9 6 -18 33 -16 33 1 0 9 7 12 20 9 12
-3 20 -14 20 -27 -1 -19 -2 -19 -11 -3 -6 9 -15 15 -20 11 -6 -4 -6 -11 2 -20
16 -20 2 -31 -20 -17 -13 8 -22 8 -29 1 -7 -7 -17 -3 -31 11 -23 23 -28 51
-10 51 6 0 9 -7 5 -15 -3 -8 -1 -15 4 -15 6 0 10 14 10 30 0 17 3 30 6 30 4 0
4 -17 1 -38z m-691 5 c1 -8 -9 -13 -22 -13 -22 0 -22 1 -7 18 17 19 26 17 29
-5z m57 -32 c-3 -9 -8 -14 -10 -11 -3 3 -2 9 2 15 9 16 15 13 8 -4z m801 -18
c-2 -11 -6 -22 -10 -26 -4 -3 -4 2 -1 11 4 11 0 21 -11 27 -15 9 -14 10 5 8
15 -1 20 -6 17 -20z m-867 -19 c-3 -8 -6 -5 -6 6 -1 11 2 17 5 13 3 -3 4 -12
1 -19z m673 12 c0 -5 -7 -10 -15 -10 -8 0 -15 5 -15 10 0 6 7 10 15 10 8 0 15
-4 15 -10z m167 -12 c-3 -8 -6 -5 -6 6 -1 11 2 17 5 13 3 -3 4 -12 1 -19z
m-787 -1 c0 -7 -7 -22 -15 -33 -14 -18 -15 -18 -12 6 1 14 7 28 12 32 14 10
15 10 15 -5z m1004 1 c-3 -5 -9 -6 -14 -3 -5 3 -11 1 -15 -5 -4 -6 -11 -8 -16
-4 -15 9 -2 20 25 20 13 0 22 -4 20 -8z m-554 -47 c0 -6 -5 -13 -10 -16 -6 -4
-8 -11 -4 -16 3 -5 0 -8 -8 -7 -7 2 -12 -2 -11 -9 3 -13 -14 -12 -42 5 -11 6
-14 12 -7 12 6 0 12 7 12 16 0 8 4 13 9 9 5 -3 12 -1 16 5 8 13 45 13 45 1z
m-486 -14 c4 4 4 -1 0 -10 -3 -10 -7 -17 -8 -15 -1 2 -8 12 -16 23 -14 18 -13
19 1 8 9 -7 19 -10 23 -6z m363 -23 c-3 -3 -12 -4 -19 -1 -8 3 -5 6 6 6 11 1
17 -2 13 -5z m-443 -23 c-8 -8 -34 -10 -38 -2 -3 4 6 7 19 7 14 0 22 -2 19 -5z
m49 -2 c-6 -6 -9 -19 -6 -28 4 -14 3 -14 -7 -1 -9 12 -10 6 -8 -27 4 -46 -2
-53 -23 -26 -10 11 -10 14 -1 9 8 -5 12 2 12 25 0 19 7 37 18 45 21 16 30 18
15 3z m25 -25 c-1 -23 -4 -31 -9 -22 -7 13 -2 58 7 58 2 0 3 -16 2 -36z m444
11 c3 3 5 -4 4 -16 -1 -13 -8 -23 -19 -25 -9 -1 -15 2 -11 7 3 5 10 6 16 3 6
-4 8 -1 6 7 -3 8 -11 13 -17 12 -6 -2 -11 4 -11 13 0 13 3 14 13 5 8 -6 16 -8
19 -6z m45 2 c0 -8 -6 -14 -14 -14 -17 0 -17 14 0 20 6 3 12 6 13 6 0 1 1 -5
1 -12z m-90 -29 c-3 -7 -5 -2 -5 12 0 14 2 19 5 13 2 -7 2 -19 0 -25z m-491
-29 c1 -21 -2 -36 -7 -33 -5 3 -8 23 -7 45 2 49 13 41 14 -12z m579 1 c-5 -8
-11 -8 -17 -2 -6 6 -7 16 -3 22 5 8 11 8 17 2 6 -6 7 -16 3 -22z m-167 3 c-10
-2 -26 -2 -35 0 -10 3 -2 5 17 5 19 0 27 -2 18 -5z m-384 -59 c3 -8 2 -12 -4
-9 -6 3 -10 10 -10 16 0 14 7 11 14 -7z m48 -14 c-2 -16 -6 -30 -8 -30 -2 0
-4 14 -4 30 0 17 4 30 8 30 5 0 7 -13 4 -30z m308 12 c0 -5 -7 -9 -15 -9 -8 0
-15 4 -15 9 0 4 7 8 15 8 8 0 15 -4 15 -8z m-380 -18 c0 -8 -4 -12 -10 -9 -5
3 -10 10 -10 16 0 5 5 9 10 9 6 0 10 -7 10 -16z m107 10 c-3 -3 -12 -4 -19 -1
-8 3 -5 6 6 6 11 1 17 -2 13 -5z m-60 -41 c-3 -2 -14 0 -24 7 -16 10 -16 11 0
6 9 -3 17 0 18 7 0 8 2 8 6 -1 3 -7 3 -16 0 -19z m-51 -23 c1 -16 -3 -27 -7
-24 -14 8 -9 54 5 54 1 0 1 -13 2 -30z m41 -60 c4 -12 3 -13 -5 -1 -6 8 -17
11 -26 8 -8 -3 -18 -2 -20 2 -3 4 7 8 21 7 14 -1 28 -8 30 -16z m72 -40 c1
-13 0 -13 -9 0 -5 8 -9 24 -9 35 l0 20 9 -20 c5 -11 9 -27 9 -35z m170 34 c1
-1 0 -7 -3 -12 -9 -15 -46 -2 -46 15 0 10 6 12 23 7 12 -3 24 -8 26 -10z
m-259 -24 c-8 -5 -22 -9 -30 -9 -10 0 -8 3 5 9 27 12 43 12 25 0z m234 -6 c22
-9 20 -20 -4 -20 -11 0 -20 6 -20 13 0 15 2 15 24 7z m-273 -37 c-10 -9 -11
-8 -5 6 3 10 9 15 12 12 3 -3 0 -11 -7 -18z m29 -62 c0 -5 -5 -3 -10 5 -5 8
-10 20 -10 25 0 6 5 3 10 -5 5 -8 10 -19 10 -25z m60 10 c0 -3 -9 -14 -20 -25
-16 -16 -20 -17 -20 -5 0 8 5 15 11 15 5 0 7 5 4 10 -3 6 1 10 9 10 9 0 16 -2
16 -5z m-73 -60 c0 -8 -4 -12 -9 -9 -5 3 -6 10 -3 15 9 13 12 11 12 -6z m73
-5 c0 -5 -7 -10 -15 -10 -8 0 -15 5 -15 10 0 6 7 10 15 10 8 0 15 -4 15 -10z
m30 0 c0 -5 -4 -10 -10 -10 -5 0 -10 5 -10 10 0 6 5 10 10 10 6 0 10 -4 10
-10z m-116 -36 c3 -8 2 -12 -4 -9 -6 3 -10 10 -10 16 0 14 7 11 14 -7z m103 9
c-13 -3 -17 -11 -14 -24 5 -20 -19 -79 -32 -79 -4 0 -8 10 -8 22 -2 18 0 20 7
8 5 -8 10 -10 10 -5 0 6 3 21 6 35 4 20 3 22 -5 10 -9 -13 -11 -13 -11 3 0 9
5 17 11 17 5 0 7 5 4 10 -4 6 5 10 22 9 19 -1 22 -3 10 -6z m-115 -115 c-6 -6
-12 -6 -17 3 -6 8 -4 10 5 4 9 -5 10 -1 6 16 -6 21 -6 22 5 6 7 -13 8 -22 1
-29z m196 -26 c2 -7 -1 -12 -8 -12 -6 0 -9 4 -6 9 4 5 1 12 -4 14 -6 3 -5 4 2
3 6 -1 14 -8 16 -14z m35 -33 c-6 -6 -7 3 -4 23 4 28 6 29 9 9 2 -13 0 -27 -5
-32z m-109 3 c3 -5 -1 -9 -9 -9 -8 0 -12 4 -9 9 3 4 7 8 9 8 2 0 6 -4 9 -8z
m-47 -24 c-3 -8 -6 -5 -6 6 -1 11 2 17 5 13 3 -3 4 -12 1 -19z m173 -4 c0 -8
-19 -13 -24 -6 -3 5 1 9 9 9 8 0 15 -2 15 -3z m-47 -49 c-3 -9 -8 -14 -10 -11
-3 3 -2 9 2 15 9 16 15 13 8 -4z m-51 -30 c-8 -16 -9 -16 -15 -1 -4 10 -3 15
3 11 6 -3 10 -1 10 6 0 7 3 10 6 6 3 -3 2 -13 -4 -22z m51 -25 c6 -8 8 -11 3
-7 -5 4 -15 2 -23 -4 -7 -6 -13 -10 -14 -8 -6 31 -5 37 7 35 8 -1 20 -9 27
-16z m24 -12 c-3 -8 -6 -5 -6 6 -1 11 2 17 5 13 3 -3 4 -12 1 -19z m1108 -364
c0 -10 -7 -19 -15 -19 -9 0 -14 -8 -12 -20 5 -26 -7 -14 -13 13 -3 16 1 20 16
17 11 -2 19 2 19 10 0 9 -8 12 -20 10 -11 -2 -18 0 -15 5 9 15 40 3 40 -16z
m-1969 -501 c-5 -16 -4 -16 8 1 14 18 15 18 13 -2 0 -11 -4 -20 -8 -19 -4 1
-6 -2 -5 -8 0 -5 4 -9 8 -8 4 2 4 -5 1 -14 -4 -10 -2 -14 4 -10 10 7 11 -28 0
-39 -3 -3 -4 -18 -1 -33 8 -47 10 -231 2 -231 -9 0 -6 -29 5 -47 4 -6 3 -14
-3 -18 -6 -4 -7 -12 -4 -18 4 -7 4 -9 -1 -5 -4 4 -14 3 -21 -3 -8 -7 -14 -7
-19 1 -4 6 -3 10 2 9 20 -3 24 2 13 16 -8 10 -14 53 -16 112 -2 81 0 99 14
110 16 12 16 13 0 7 -13 -4 -16 -1 -13 15 2 12 6 25 10 30 3 5 1 12 -5 16 -6
4 -8 11 -5 16 4 5 8 17 10 26 2 10 7 27 11 37 5 12 4 17 -3 13 -6 -4 -9 5 -8
21 3 37 4 42 11 42 3 0 3 -8 0 -17z m14 -478 c-6 -8 -9 -19 -5 -25 3 -5 4 -10
1 -10 -3 0 -10 10 -17 21 -7 13 -7 19 -1 15 6 -3 13 -2 17 4 3 5 9 10 12 10 3
0 0 -7 -7 -15z m-237 -42 c-3 -8 2 -13 13 -14 15 0 16 -2 4 -7 -13 -6 -20 -64
-10 -82 8 -15 4 -168 -5 -167 -5 1 -9 -5 -7 -13 3 -11 -2 -9 -18 5 -19 17 -20
26 -16 108 3 50 8 92 11 95 4 5 9 -21 7 -39 -1 -3 6 -6 13 -6 11 0 12 4 4 13
-6 7 -8 18 -5 23 4 5 -2 14 -11 20 -11 6 -13 11 -5 11 8 0 10 5 5 13 -11 18
-13 38 -2 31 9 -5 13 8 10 36 -2 13 0 13 8 1 5 -8 7 -20 4 -28z m263 11 c-3
-7 -1 -16 4 -19 6 -4 11 6 11 22 l2 28 5 -30 5 -30 8 25 c8 25 9 25 5 -3 -2
-15 0 -30 5 -32 7 -5 2 -55 -7 -64 -2 -2 1 -10 7 -17 6 -7 7 -19 3 -26 -12
-18 -14 -38 -4 -38 13 0 5 -31 -10 -40 -7 -5 -15 -16 -16 -25 -2 -12 3 -14 19
-10 15 4 18 3 9 -3 -8 -5 -14 -13 -14 -17 0 -4 6 -12 14 -17 10 -8 10 -9 -2
-5 -8 2 -14 10 -12 17 2 7 -3 10 -11 7 -10 -4 -13 2 -12 21 1 15 -3 33 -9 41
-9 12 -6 13 19 8 23 -6 26 -5 13 3 -9 6 -15 19 -13 30 2 13 -2 20 -11 20 -10
0 -13 8 -10 25 3 14 0 25 -5 25 -5 0 -9 5 -9 11 0 5 5 7 12 3 8 -5 9 -2 5 9
-3 10 -3 17 2 17 16 0 20 -14 8 -28 -10 -13 -9 -14 2 -7 10 6 12 4 6 -6 -5 -8
-4 -11 1 -6 11 11 13 76 2 83 -5 3 -7 0 -6 -7 2 -7 -4 -14 -12 -14 -8 -1 -9 0
-2 2 7 3 10 9 6 14 -3 5 -9 7 -13 5 -4 -3 -7 8 -6 24 0 15 4 26 8 23 5 -3 6
-11 3 -19z m-43 -69 c-3 -9 -8 -14 -10 -11 -3 3 -2 9 2 15 9 16 15 13 8 -4z
m62 -234 c3 -5 2 -12 -3 -15 -5 -3 -9 1 -9 9 0 17 3 19 12 6z m-255 -11 c0 -5
-2 -10 -4 -10 -3 0 -8 5 -11 10 -3 6 -1 10 4 10 6 0 11 -4 11 -10z m289 -3
c-2 -1 -13 -9 -24 -17 -19 -14 -19 -14 -6 3 7 9 18 17 24 17 6 0 8 -1 6 -3z
m-32 -52 c0 -8 -4 -12 -9 -9 -5 3 -6 10 -3 15 9 13 12 11 12 -6z m24 -83 c-7
-2 -18 1 -23 6 -8 8 -4 9 13 5 13 -4 18 -8 10 -11z"/>
<path d="M997 7015 c-4 -8 -3 -16 1 -19 4 -3 9 4 9 15 2 23 -3 25 -10 4z"/>
<path d="M1080 7006 c0 -20 5 -25 28 -24 21 1 27 6 27 24 0 19 -5 24 -27 24
-23 0 -28 -4 -28 -24z"/>
<path d="M1113 6835 c0 -8 4 -12 9 -9 5 3 6 10 3 15 -9 13 -12 11 -12 -6z"/>
<path d="M1135 6721 c-3 -5 -1 -12 5 -16 6 -4 8 -10 6 -14 -3 -4 1 -8 9 -8 13
0 13 3 0 17 -8 9 -12 20 -8 23 3 4 4 7 0 7 -3 0 -8 -4 -12 -9z"/>
<path d="M1160 6724 c0 -5 7 -18 15 -28 8 -11 15 -16 15 -10 0 5 -7 18 -15 28
-8 11 -15 16 -15 10z"/>
<path d="M960 6658 c0 -4 5 -8 10 -8 6 0 10 -7 10 -15 0 -8 7 -15 15 -15 9 0
15 9 15 25 0 20 -4 24 -25 23 -14 -1 -25 -6 -25 -10z m37 -20 c-3 -8 -6 -5 -6
6 -1 11 2 17 5 13 3 -3 4 -12 1 -19z"/>
<path d="M1159 6608 c-6 -20 -6 -39 0 -42 4 -3 7 6 7 20 0 20 -4 32 -7 22z"/>
<path d="M1184 6585 c0 -13 4 -21 8 -19 5 3 6 10 3 15 -4 5 -2 9 3 9 6 0 13
-8 17 -17 6 -17 7 -17 21 1 8 11 14 25 14 30 0 6 -4 5 -9 -2 -9 -15 -17 -15
-41 -2 -12 7 -16 3 -16 -15z"/>
<path d="M766 6578 c3 -5 10 -6 15 -3 13 9 11 12 -6 12 -8 0 -12 -4 -9 -9z"/>
<path d="M3098 5743 c7 -3 16 -2 19 1 4 3 -2 6 -13 5 -11 0 -14 -3 -6 -6z"/>
<path d="M4140 5741 c0 -10 19 -25 25 -20 1 2 -3 10 -11 17 -8 7 -14 8 -14 3z"/>
<path d="M5694 5699 c-4 -8 -3 -9 5 -5 7 4 14 -2 19 -15 l9 -23 6 23 c3 13 3
20 0 17 -4 -3 -12 -1 -19 5 -8 7 -14 6 -20 -2z"/>
<path d="M3114 5684 c-18 -14 -18 -15 4 -4 12 6 22 13 22 15 0 8 -5 6 -26 -11z"/>
<path d="M3234 5678 c1 -7 14 -13 29 -13 14 -1 24 2 21 7 -3 4 -10 6 -15 3 -5
-4 -9 0 -9 7 0 10 -2 10 -9 -1 -6 -9 -10 -10 -14 -2 -4 8 -5 7 -3 -1z"/>
<path d="M3305 5669 c-3 -4 2 -6 10 -5 21 3 28 13 10 13 -9 0 -18 -4 -20 -8z"/>
<path d="M3805 5660 c-3 -5 -1 -10 4 -10 6 0 11 5 11 10 0 6 -2 10 -4 10 -3 0
-8 -4 -11 -10z"/>
<path d="M5744 5650 c0 -13 4 -16 10 -10 7 7 7 13 0 20 -6 6 -10 3 -10 -10z"/>
<path d="M3090 5630 c0 -5 5 -10 10 -10 6 0 10 5 10 10 0 6 -4 10 -10 10 -5 0
-10 -4 -10 -10z"/>
<path d="M5860 5506 c0 -2 7 -7 16 -10 8 -3 12 -2 9 4 -6 10 -25 14 -25 6z"/>
<path d="M6045 5500 c3 -5 11 -10 16 -10 6 0 7 5 4 10 -3 6 -11 10 -16 10 -6
0 -7 -4 -4 -10z"/>
<path d="M3165 5483 c2 -10 4 -20 5 -23 1 -3 2 -8 1 -12 -2 -12 5 -9 19 8 11
12 11 15 0 12 -8 -2 -14 2 -15 9 0 6 -3 14 -7 18 -3 4 -5 -1 -3 -12z"/>
<path d="M5945 5490 c3 -5 8 -10 11 -10 2 0 4 5 4 10 0 6 -5 10 -11 10 -5 0
-7 -4 -4 -10z"/>
<path d="M5991 5486 c-7 -8 -8 -17 -3 -20 6 -3 12 3 15 14 6 24 4 25 -12 6z"/>
<path d="M6080 5482 c0 -6 -6 -10 -12 -8 -7 1 -10 1 -5 -1 4 -3 4 -10 1 -16
-4 -7 1 -4 11 5 11 10 16 21 12 24 -4 4 -7 2 -7 -4z"/>
<path d="M6017 5459 c7 -7 15 -10 18 -7 3 3 -2 9 -12 12 -14 6 -15 5 -6 -5z"/>
<path d="M5907 5438 c-3 -9 3 -14 17 -15 11 -1 32 -4 45 -7 13 -3 21 -2 17 1
-4 4 -12 8 -19 9 -29 5 -42 10 -48 17 -3 5 -9 2 -12 -5z"/>
<path d="M6005 5430 c-3 -5 -1 -10 4 -10 6 0 11 5 11 10 0 6 -2 10 -4 10 -3 0
-8 -4 -11 -10z"/>
<path d="M6030 5410 c-9 -6 -10 -10 -3 -10 6 0 15 5 18 10 8 12 4 12 -15 0z"/>
<path d="M5799 5403 c-10 -64 -8 -71 11 -66 24 6 26 21 5 29 -10 4 -13 13 -10
25 4 11 4 19 1 19 -3 0 -7 -3 -7 -7z"/>
<path d="M5695 5391 c-3 -5 -2 -12 3 -15 5 -3 9 1 9 9 0 17 -3 19 -12 6z"/>
<path d="M5723 5385 c0 -8 4 -12 9 -9 5 3 6 10 3 15 -9 13 -12 11 -12 -6z"/>
<path d="M5890 5394 c0 -1 14 -10 32 -18 23 -12 35 -13 42 -5 8 8 5 10 -9 7
-11 -1 -19 2 -18 8 1 6 -9 12 -22 12 -14 0 -25 -2 -25 -4z"/>
<path d="M6055 5391 c3 -6 10 -9 15 -6 4 3 11 0 13 -5 3 -6 4 -5 3 2 -1 7 -11
15 -21 16 -11 3 -15 0 -10 -7z"/>
<path d="M5866 5375 c4 -8 10 -12 15 -9 11 6 2 24 -11 24 -5 0 -7 -7 -4 -15z"/>
<path d="M5600 5333 c0 -5 -16 -9 -35 -8 -19 2 -32 -1 -30 -6 3 -4 12 -6 20
-2 8 3 15 0 15 -6 0 -5 9 -15 19 -20 27 -15 44 7 25 33 -8 11 -14 15 -14 9z
m7 -35 c-3 -8 -6 -5 -6 6 -1 11 2 17 5 13 3 -3 4 -12 1 -19z"/>
<path d="M5840 5300 c-9 -6 -10 -10 -3 -10 6 0 15 5 18 10 8 12 4 12 -15 0z"/>
<path d="M6116 5295 c4 -8 11 -15 16 -15 6 0 5 6 -2 15 -7 8 -14 15 -16 15 -2
0 -1 -7 2 -15z"/>
<path d="M5090 5201 c0 -7 -4 -9 -10 -6 -6 4 -7 -1 -3 -11 6 -15 7 -15 15 1 6
9 7 19 4 22 -3 4 -6 1 -6 -6z"/>
<path d="M5290 5191 c0 -6 4 -13 10 -16 6 -3 7 1 4 9 -7 18 -14 21 -14 7z"/>
<path d="M3053 4995 c-7 -8 -9 -16 -4 -19 5 -3 12 1 15 10 8 22 4 25 -11 9z"/>
<path d="M3056 4938 c3 -4 9 -8 15 -8 5 0 9 4 9 8 0 5 -7 9 -15 9 -8 0 -12 -4
-9 -9z"/>
<path d="M3096 4868 c3 -5 10 -6 15 -3 13 9 11 12 -6 12 -8 0 -12 -4 -9 -9z"/>
<path d="M3059 4868 c-6 -17 -4 -60 4 -65 6 -3 7 -1 3 5 -3 6 -2 14 4 17 8 5
8 11 1 19 -6 7 -8 16 -4 19 3 4 3 7 0 7 -4 0 -7 -1 -8 -2z"/>
<path d="M5120 4829 c0 -4 7 -10 16 -13 8 -3 13 -10 10 -14 -3 -5 1 -9 9 -9
20 0 19 13 -1 21 -8 3 -13 10 -10 14 3 5 -1 9 -9 9 -8 0 -15 -4 -15 -8z"/>
<path d="M5160 4830 c0 -5 7 -10 15 -10 8 0 15 5 15 10 0 6 -7 10 -15 10 -8 0
-15 -4 -15 -10z"/>
<path d="M3378 4783 c7 -3 16 -2 19 1 4 3 -2 6 -13 5 -11 0 -14 -3 -6 -6z"/>
<path d="M3412 4778 c-7 -7 -12 -22 -12 -35 0 -13 -4 -23 -9 -23 -6 0 -8 9 -6
20 2 13 -2 20 -11 20 -8 0 -14 5 -14 12 0 6 -3 8 -6 5 -4 -4 -1 -13 6 -22 7
-8 10 -22 6 -30 -3 -9 0 -15 8 -15 8 0 22 -3 32 -7 11 -4 15 -3 10 5 -3 6 -2
13 4 17 6 4 9 -4 8 -18 -1 -15 -7 -23 -15 -20 -8 3 -10 -4 -7 -23 3 -16 7 -30
9 -33 8 -8 35 9 34 21 0 10 -2 10 -6 1 -2 -7 -9 -13 -14 -13 -6 0 -8 4 -5 9 4
5 0 12 -6 14 -8 3 -6 6 5 6 13 1 17 10 17 41 0 31 -3 38 -15 34 -18 -7 -20 7
-3 24 6 6 9 14 7 17 -3 2 -11 -1 -17 -7z"/>
<path d="M3697 4776 c-3 -8 1 -20 9 -26 8 -7 14 -9 14 -4 0 5 5 2 10 -6 8 -12
10 -11 10 7 0 17 -4 20 -22 15 -21 -5 -22 -4 -9 11 7 9 9 17 3 17 -5 0 -12 -6
-15 -14z"/>
<path d="M5240 4779 c-11 -7 -12 -12 -3 -15 7 -3 9 -12 6 -20 -3 -9 0 -12 8
-9 8 3 14 16 14 30 0 28 -3 30 -25 14z"/>
<path d="M3815 4770 c4 -7 1 -16 -6 -21 -10 -6 -6 -9 14 -9 22 0 28 4 25 17
-2 10 -12 19 -22 21 -12 3 -16 0 -11 -8z"/>
<path d="M3760 4751 c0 -6 4 -13 10 -16 6 -3 7 1 4 9 -7 18 -14 21 -14 7z"/>
<path d="M3785 4720 c-16 -7 -17 -9 -3 -9 9 -1 20 4 23 9 7 11 7 11 -20 0z"/>
<path d="M3833 4709 c-2 -23 3 -25 10 -4 4 8 3 16 -1 19 -4 3 -9 -4 -9 -15z"/>
<path d="M3463 4650 c2 -8 12 -16 23 -17 13 -2 15 -1 4 4 -8 3 -19 11 -23 17
-6 7 -7 6 -4 -4z"/>
<path d="M3472 4600 c0 -14 2 -19 5 -12 2 6 2 18 0 25 -3 6 -5 1 -5 -13z"/>
<path d="M5054 4408 c-4 -7 -4 -10 1 -6 4 4 15 2 24 -5 14 -11 14 -10 2 6 -16
20 -18 21 -27 5z"/>
<path d="M3994 4210 c0 -16 6 -19 33 -16 34 2 62 21 50 32 -4 4 -15 0 -26 -10
-16 -15 -19 -15 -31 -1 -17 20 -26 19 -26 -5z"/>
<path d="M4030 4219 c0 -5 5 -7 10 -4 6 3 10 8 10 11 0 2 -4 4 -10 4 -5 0 -10
-5 -10 -11z"/>
<path d="M4102 4223 c-6 -3 -10 -8 -8 -12 11 -18 14 -60 4 -58 -6 1 -12 -3
-14 -8 -3 -6 11 -11 31 -11 34 0 34 1 19 23 -8 13 -12 28 -9 33 9 14 -8 38
-23 33z"/>
<path d="M4075 4190 c3 -5 -3 -18 -14 -29 -15 -15 -16 -21 -6 -25 8 -3 17 3
20 15 4 10 10 19 15 19 5 0 7 7 4 15 -4 8 -10 15 -16 15 -5 0 -7 -4 -3 -10z"/>
<path d="M4808 4133 c7 -3 16 -2 19 1 4 3 -2 6 -13 5 -11 0 -14 -3 -6 -6z"/>
<path d="M5700 4056 c0 -2 7 -7 16 -10 8 -3 12 -2 9 4 -6 10 -25 14 -25 6z"/>
<path d="M4510 3931 c0 -6 4 -12 8 -15 5 -3 9 1 9 9 0 8 -4 15 -9 15 -4 0 -8
-4 -8 -9z"/>
<path d="M4645 3930 c-3 -6 1 -7 9 -4 18 7 21 14 7 14 -6 0 -13 -4 -16 -10z"/>
<path d="M4710 3929 c0 -11 31 -20 43 -12 7 4 15 8 19 8 3 0 9 2 12 5 3 3 -13
6 -34 6 -22 0 -40 -3 -40 -7z"/>
<path d="M4804 3929 c-4 -7 -3 -9 4 -5 5 3 13 0 15 -6 4 -9 6 -10 6 -1 1 17
-16 25 -25 12z"/>
<path d="M4846 3929 c3 -5 9 -7 14 -4 5 3 13 -2 18 -11 8 -15 10 -15 15 0 4 9
3 15 -1 15 -4 -1 -9 0 -12 1 -19 7 -39 7 -34 -1z"/>
<path d="M4606 3878 c7 -11 34 -10 34 1 0 6 -9 9 -19 8 -11 0 -17 -5 -15 -9z"/>
<path d="M4888 3883 c7 -3 16 -2 19 1 4 3 -2 6 -13 5 -11 0 -14 -3 -6 -6z"/>
<path d="M4485 3870 c3 -5 8 -10 11 -10 2 0 4 5 4 10 0 6 -5 10 -11 10 -5 0
-7 -4 -4 -10z"/>
<path d="M4577 3864 c-4 -4 -7 -14 -7 -23 0 -11 3 -12 11 -4 6 6 10 16 7 23
-2 6 -7 8 -11 4z"/>
<path d="M4746 3845 c-3 -9 0 -15 9 -15 16 0 20 16 6 24 -5 3 -11 -1 -15 -9z"/>
<path d="M4590 3830 c0 -5 5 -10 10 -10 6 0 10 5 10 10 0 6 -4 10 -10 10 -5 0
-10 -4 -10 -10z"/>
<path d="M4635 3801 c1 -9 5 -15 8 -13 4 1 12 2 17 2 18 0 11 17 -9 23 -13 3
-18 0 -16 -12z"/>
<path d="M4680 3810 c0 -5 15 -10 33 -9 27 0 29 2 12 9 -28 12 -45 12 -45 0z"/>
<path d="M3580 3745 c0 -7 30 -13 34 -7 3 4 -4 9 -15 9 -10 1 -19 0 -19 -2z"/>
<path d="M3643 3626 c-3 -6 -3 -8 2 -4 4 4 13 3 20 -2 8 -7 12 -5 12 3 0 16
-25 18 -34 3z"/>
<path d="M3804 3385 c2 -7 -1 -19 -7 -26 -7 -7 -2 -5 11 5 26 22 28 33 7 33
-9 0 -14 -6 -11 -12z"/>
<path d="M3831 3378 c-14 -23 -14 -29 2 -22 20 7 38 41 22 41 -7 0 -17 -9 -24
-19z"/>
<path d="M3766 3368 c3 -5 10 -6 15 -3 13 9 11 12 -6 12 -8 0 -12 -4 -9 -9z"/>
<path d="M4301 3296 c-1 -13 -6 -16 -18 -11 -15 5 -16 4 -5 -6 15 -16 37 2 29
23 -4 8 -6 6 -6 -6z"/>
<path d="M4255 3261 c-3 -6 -10 -9 -14 -7 -4 3 -8 -1 -8 -9 0 -8 2 -15 4 -15
9 0 35 31 30 36 -3 3 -8 0 -12 -5z"/>
<path d="M3985 3250 c3 -5 8 -10 11 -10 2 0 4 5 4 10 0 6 -5 10 -11 10 -5 0
-7 -4 -4 -10z"/>
<path d="M4336 3226 c-4 -15 -15 -26 -29 -29 -20 -4 -19 -4 4 -6 21 -1 28 5
33 25 4 15 5 28 3 31 -3 2 -7 -7 -11 -21z"/>
<path d="M3956 3221 c4 -16 3 -21 -5 -17 -6 4 -11 2 -11 -4 0 -6 6 -10 13 -8
6 1 23 -4 37 -11 18 -10 22 -10 13 -1 -6 7 -9 19 -6 26 3 8 0 14 -7 14 -6 0
-8 -4 -5 -10 3 -5 2 -10 -3 -10 -5 0 -14 10 -21 23 l-11 22 6 -24z"/>
<path d="M4011 3224 c0 -11 3 -14 6 -6 3 7 2 16 -1 19 -3 4 -6 -2 -5 -13z"/>
<path d="M4269 3223 c-13 -15 -12 -15 9 -4 23 12 28 21 13 21 -5 0 -15 -7 -22
-17z"/>
<path d="M4010 3196 c0 -2 9 -6 20 -9 11 -3 18 -1 14 4 -5 9 -34 13 -34 5z"/>
<path d="M4385 3170 c3 -5 8 -10 11 -10 2 0 4 5 4 10 0 6 -5 10 -11 10 -5 0
-7 -4 -4 -10z"/>
<path d="M4057 3163 c-4 -3 -7 -13 -7 -21 0 -18 13 -7 16 13 2 17 1 18 -9 8z"/>
<path d="M3965 3150 c-3 -5 0 -10 7 -10 7 0 25 -7 41 -14 26 -14 27 -14 27 10
0 13 -5 24 -11 24 -5 0 -7 -4 -4 -10 3 -5 -3 -10 -14 -10 -12 0 -21 5 -21 10
0 6 -4 10 -9 10 -6 0 -13 -4 -16 -10z"/>
<path d="M4172 3130 c0 -14 2 -19 5 -12 2 6 2 18 0 25 -3 6 -5 1 -5 -13z"/>
<path d="M4220 3136 c0 -8 4 -17 9 -20 5 -4 7 3 4 14 -6 23 -13 26 -13 6z"/>
<path d="M4343 3126 c-3 -6 -3 -8 2 -4 4 4 13 3 20 -2 8 -7 12 -5 12 3 0 16
-25 18 -34 3z"/>
<path d="M3955 3120 c3 -5 8 -10 11 -10 2 0 4 5 4 10 0 6 -5 10 -11 10 -5 0
-7 -4 -4 -10z"/>
<path d="M4102 3070 c0 -14 2 -19 5 -12 2 6 2 18 0 25 -3 6 -5 1 -5 -13z"/>
<path d="M4171 3035 c1 -19 18 -51 18 -35 0 8 -4 22 -9 30 -5 8 -9 11 -9 5z"/>
<path d="M4231 3024 c0 -11 3 -14 6 -6 3 7 2 16 -1 19 -3 4 -6 -2 -5 -13z"/>
<path d="M4202 3000 c0 -14 2 -19 5 -12 2 6 2 18 0 25 -3 6 -5 1 -5 -13z"/>
<path d="M4517 3009 c7 -7 15 -10 18 -7 3 3 -2 9 -12 12 -14 6 -15 5 -6 -5z"/>
<path d="M4250 3000 c0 -5 5 -10 10 -10 6 0 10 5 10 10 0 6 -4 10 -10 10 -5 0
-10 -4 -10 -10z"/>
<path d="M4428 2993 c7 -3 16 -2 19 1 4 3 -2 6 -13 5 -11 0 -14 -3 -6 -6z"/>
<path d="M4483 2983 c-13 -5 -19 -33 -7 -33 3 0 12 6 20 14 23 23 17 32 -13
19z"/>
<path d="M4360 2960 c-25 -15 2 -33 32 -21 27 10 47 31 29 31 -5 0 -13 -4 -16
-10 -3 -5 -11 -10 -16 -10 -6 0 -7 5 -4 10 8 13 -5 13 -25 0z"/>
<path d="M4320 2930 c0 -5 7 -10 15 -10 8 0 15 5 15 10 0 6 -7 10 -15 10 -8 0
-15 -4 -15 -10z"/>
<path d="M4168 2923 c7 -3 16 -2 19 1 4 3 -2 6 -13 5 -11 0 -14 -3 -6 -6z"/>
<path d="M4370 2910 c0 -5 7 -10 15 -10 8 0 15 5 15 10 0 6 -7 10 -15 10 -8 0
-15 -4 -15 -10z"/>
<path d="M4184 2876 c-3 -8 -4 -23 -1 -33 3 -12 6 -7 7 12 l3 30 7 -35 7 -35
2 32 c1 34 -15 54 -25 29z"/>
<path d="M4013 2844 c-6 -13 -7 -26 -2 -29 4 -3 6 -12 2 -20 -7 -19 7 -19 32
2 16 13 17 15 3 10 -21 -7 -25 8 -5 16 21 8 41 -8 31 -24 -6 -12 -5 -12 9 0
16 13 16 15 -5 35 -17 17 -27 20 -37 12 -11 -8 -13 -8 -8 1 4 6 4 14 -1 16 -4
3 -12 -6 -19 -19z"/>
<path d="M4260 2840 c0 -5 5 -10 11 -10 5 0 7 5 4 10 -3 6 -8 10 -11 10 -2 0
-4 -4 -4 -10z"/>
<path d="M4220 2830 c0 -5 5 -10 11 -10 5 0 7 5 4 10 -3 6 -8 10 -11 10 -2 0
-4 -4 -4 -10z"/>
<path d="M4094 2789 c-3 -6 -1 -16 5 -22 8 -8 11 -5 11 11 0 24 -5 28 -16 11z"/>
<path d="M4026 2740 c-11 -22 -16 -43 -13 -47 4 -3 7 1 7 10 0 10 5 17 11 17
5 0 7 -4 4 -10 -3 -5 -1 -10 5 -10 7 0 10 6 7 13 -2 6 2 20 10 29 14 16 11 38
-5 38 -4 0 -16 -18 -26 -40z"/>
<path d="M4190 2725 c0 -9 6 -12 15 -9 8 4 15 1 15 -7 0 -7 3 -9 6 -6 8 8 -14
37 -27 37 -5 0 -9 -7 -9 -15z"/>
<path d="M3995 2470 c3 -5 0 -10 -7 -12 -9 -3 -9 -6 0 -12 7 -4 12 -3 12 3 0
6 7 8 15 5 8 -4 15 -2 15 4 0 5 -9 12 -20 15 -11 3 -18 1 -15 -3z"/>
<path d="M4005 2431 c-6 -11 9 -23 19 -14 9 9 7 23 -3 23 -6 0 -12 -4 -16 -9z"/>
<path d="M4016 2369 c3 -44 14 -49 14 -6 0 21 -4 37 -8 37 -5 0 -7 -14 -6 -31z"/>
<path d="M4002 2312 c-14 -10 -7 -38 12 -45 9 -4 13 4 12 24 -1 31 -4 33 -24
21z"/>
<path d="M5036 5931 c-4 -5 -2 -12 3 -15 5 -4 12 -2 15 3 4 5 2 12 -3 15 -5 4
-12 2 -15 -3z"/>
<path d="M5980 5336 c0 -2 8 -10 18 -17 15 -13 16 -12 3 4 -13 16 -21 21 -21
13z"/>
<path d="M6010 5290 c-6 -11 -7 -20 -2 -20 6 0 12 9 15 20 3 11 3 20 1 20 -2
0 -8 -9 -14 -20z"/>
<path d="M5729 3955 c-1 -3 -3 -9 -4 -15 -1 -5 -3 -16 -4 -22 -2 -7 -6 -4 -11
7 -8 19 -9 19 -9 -2 -1 -29 19 -40 26 -14 3 11 4 23 3 27 -1 4 4 11 12 15 10
7 10 9 1 9 -7 0 -14 -2 -14 -5z"/>
<path d="M4856 3317 c3 -10 9 -15 12 -12 3 3 0 11 -7 18 -10 9 -11 8 -5 -6z"/>
<path d="M5033 3309 c9 -5 17 -17 17 -24 0 -20 16 -19 24 1 9 23 8 27 -9 21
-8 -4 -17 -2 -20 3 -4 6 -12 10 -18 10 -7 0 -4 -5 6 -11z"/>
<path d="M4812 3255 c0 -16 2 -22 5 -12 2 9 2 23 0 30 -3 6 -5 -1 -5 -18z"/>
<path d="M5216 3246 c5 -12 4 -17 -3 -13 -11 7 -11 -29 0 -38 4 -3 5 -2 2 1
-2 4 0 16 6 26 8 15 8 23 -1 32 -8 8 -9 6 -4 -8z"/>
<path d="M4764 3178 c1 -15 5 -30 9 -33 4 -3 5 -2 2 2 -3 3 1 13 8 21 8 11 8
14 0 9 -7 -4 -14 0 -16 10 -3 10 -4 6 -3 -9z"/>
<path d="M5246 3187 c3 -10 9 -15 12 -12 3 3 0 11 -7 18 -10 9 -11 8 -5 -6z"/>
<path d="M4826 3172 c-3 -6 1 -15 8 -21 8 -7 17 -8 20 -3 3 6 -1 15 -8 21 -8
7 -17 8 -20 3z"/>
<path d="M4909 3157 c6 -6 18 -12 27 -13 12 -2 14 0 5 9 -6 6 -18 12 -27 13
-12 2 -14 0 -5 -9z"/>
<path d="M4713 3130 c1 -21 10 -18 13 5 1 8 -2 15 -6 15 -5 0 -8 -9 -7 -20z"/>
<path d="M4670 3130 c0 -5 5 -10 11 -10 5 0 7 5 4 10 -3 6 -8 10 -11 10 -2 0
-4 -4 -4 -10z"/>
<path d="M4896 3118 c3 -5 10 -6 15 -3 13 9 11 12 -6 12 -8 0 -12 -4 -9 -9z"/>
<path d="M4922 3090 c0 -14 2 -19 5 -12 2 6 2 18 0 25 -3 6 -5 1 -5 -13z"/>
<path d="M5013 3095 c0 -8 4 -12 9 -9 5 3 6 10 3 15 -9 13 -12 11 -12 -6z"/>
<path d="M4887 3086 c-10 -26 -8 -33 4 -16 9 12 10 10 5 -9 -3 -18 -2 -21 6
-13 8 8 8 18 1 34 -8 19 -10 20 -16 4z"/>
<path d="M5054 3081 c4 -5 0 -11 -6 -14 -7 -3 -3 -4 9 -4 17 1 19 4 11 14 -12
15 -22 18 -14 4z"/>
<path d="M4993 3075 c4 -4 0 -16 -9 -26 -12 -13 -12 -19 -3 -25 7 -4 10 -3 6
3 -4 6 -1 16 7 22 11 9 15 9 18 -1 3 -7 7 -5 12 7 4 11 4 16 0 12 -4 -4 -14
-1 -23 5 -9 7 -13 8 -8 3z"/>
<path d="M4946 3053 c-6 -14 -5 -15 5 -6 7 7 10 15 7 18 -3 3 -9 -2 -12 -12z"/>
<path d="M4730 3051 c0 -6 5 -11 11 -11 5 0 8 -4 4 -9 -3 -5 0 -13 6 -16 7 -5
9 1 7 16 -3 22 -28 40 -28 20z"/>
<path d="M4778 3038 c-4 -10 4 -23 24 -38 16 -12 32 -20 34 -17 8 8 -19 47
-33 47 -6 0 -13 5 -15 12 -3 8 -6 7 -10 -4z"/>
<path d="M4835 3030 c3 -5 15 -10 26 -10 11 0 17 5 14 10 -3 6 -15 10 -26 10
-11 0 -17 -4 -14 -10z"/>
<path d="M4870 3000 c0 -5 7 -7 15 -4 8 4 15 8 15 10 0 2 -7 4 -15 4 -8 0 -15
-4 -15 -10z"/>
<path d="M5005 2989 c-4 -6 -5 -12 -2 -15 2 -3 7 2 10 11 7 17 1 20 -8 4z"/>
<path d="M2555 3120 c18 -20 19 -31 4 -27 -6 1 -13 -9 -14 -23 -2 -14 -1 -19
2 -12 4 10 8 9 17 -3 9 -13 11 -10 10 17 -2 59 -4 65 -19 65 -13 0 -13 -2 0
-17z"/>
<path d="M5265 3120 c-3 -5 -1 -10 4 -10 6 0 11 5 11 10 0 6 -2 10 -4 10 -3 0
-8 -4 -11 -10z"/>
<path d="M4414 2849 c-24 -26 0 -32 25 -5 16 17 18 23 6 23 -8 0 -22 -8 -31
-18z"/>
<path d="M3230 1083 c0 -7 1 -14 2 -15 1 -2 -4 -12 -10 -24 -8 -15 -8 -24 0
-32 8 -8 8 -15 0 -25 -9 -10 -8 -14 2 -14 9 0 13 11 11 36 -1 20 1 41 6 46 4
6 4 17 -1 25 -7 10 -10 11 -10 3z"/>
<path d="M3213 865 c0 -8 4 -12 9 -9 5 3 6 10 3 15 -9 13 -12 11 -12 -6z"/>
<path d="M3220 756 c0 -26 15 -43 24 -27 4 5 2 12 -4 16 -6 4 -8 10 -5 15 3 5
1 11 -5 15 -6 4 -10 -4 -10 -19z"/>
<path d="M2985 611 c-3 -5 -2 -12 3 -15 5 -3 9 1 9 9 0 17 -3 19 -12 6z"/>
<path d="M2983 435 c-3 -9 -3 -18 -1 -21 3 -3 8 4 11 16 6 23 -1 27 -10 5z"/>
<path d="M2995 400 c-4 -6 -10 -8 -15 -5 -10 6 -7 -21 4 -32 4 -4 6 -1 4 7 -1
8 2 14 8 13 6 -1 11 5 11 13 0 17 -4 18 -12 4z"/>
<path d="M3273 515 c0 -7 6 -12 14 -11 19 3 21 19 2 21 -9 2 -16 -3 -16 -10z"/>
</g>
</svg>
